<svg aria-hidden="true" style="width:0;height:0;position:absolute;overflow:hidden" xmlns="http://www.w3.org/2000/svg"><defs><symbol id="icon-close" viewBox="0 0 32 32"><path d="M16 12.445 28.445 0 32 3.555 19.555 16 32 28.445 28.445 32 16 19.555 3.555 32 0 28.445 12.445 16 0 3.555 3.555 0 16 12.445z"/></symbol><symbol id="icon-navigation" viewBox="0 0 32 32"><path fill="none" stroke="#fcfcfb" style="stroke:var(--color50,#fcfcfb)" stroke-linejoin="round" stroke-width="1.524" d="M7.879 4.069a11.29 11.29 0 0 0-3.307 7.984v.823c.457 6.187 5.592 11.162 11.291 17.6 5.95-6.72 11.292-11.81 11.292-18.423A11.291 11.291 0 0 0 7.88 4.069zm11.003 3.476a5.429 5.429 0 0 1 2.309 5.579 5.44 5.44 0 0 1-4.272 4.266 5.432 5.432 0 1 1 1.965-9.845z"/></symbol><symbol id="icon-messages" viewBox="0 0 32 32"><path fill="none" stroke="#fcfcfb" style="stroke:var(--color50,#fcfcfb)" stroke-linejoin="round" stroke-linecap="round" stroke-width="1.421" d="M31.259 16.015a15.282 15.282 0 0 0-6.075-12.219 15.27 15.27 0 0 0-23.467 6.746 15.265 15.265 0 0 0 1.342 13.58l-.948 5.768 5.768-.948a15.24 15.24 0 0 0 14.051 1.145"/></symbol><symbol id="icon-phone" viewBox="0 0 32 32"><path fill="none" stroke="#fcfcfb" style="stroke:var(--color50,#fcfcfb)" stroke-linejoin="round" stroke-width="1.6" d="M23.935 20.532a2.488 2.488 0 0 0-2.4.464c-.424.432-1.648 1.64-2.92 2.888a22.958 22.958 0 0 1-10.48-10.488c1.24-1.272 2.4-2.488 2.872-2.912a2.494 2.494 0 0 0 .464-2.4 49.58 49.58 0 0 1-.888-5.048 1.593 1.593 0 0 0-1.195-1.385 1.607 1.607 0 0 0-.644-.03H1.928A1.206 1.206 0 0 0 .839 2.717c-.44 6.152 2.992 12.736 3.688 14v.048l.096.184a28.355 28.355 0 0 0 10.4 10.4l.352.2c1.6.848 7.96 4.048 13.904 3.608a1.193 1.193 0 0 0 1.111-1.087v-6.808a1.588 1.588 0 0 0-.312-1.224 1.61 1.61 0 0 0-1.103-.615 49.656 49.656 0 0 1-5.04-.888z"/></symbol><symbol id="icon-youtube" viewBox="0 0 32 32"><path fill="#fcfcfb" style="fill:var(--color50,#fcfcfb)" d="M29.384 5.513C28.518 4.863 26.104 4 15.992 4 5.155 4 3.547 4.991 3.031 5.315.285 7.035.025 14.648 0 16.191c.033 2.039.349 8.822 3.029 10.5C3.544 27.015 5.143 28 15.992 28c10.119 0 12.53-.859 13.392-1.506 2.341-1.755 2.61-7.799 2.616-10.329-.006-2.034-.211-8.846-2.616-10.652zm-1.167 19.291c-.348.261-2.347 1.114-12.225 1.114-9.551 0-11.554-.773-11.933-1.011-.964-.603-1.981-3.803-2.061-8.721.079-4.907 1.11-8.49 2.063-9.085.38-.239 2.391-1.018 11.931-1.018 9.87 0 11.875.858 12.225 1.12.855.642 1.772 4.024 1.785 8.968-.013 5.022-.935 7.995-1.785 8.632zm-5.711-9.623-8.989-5.749a.964.964 0 0 0-1.007-.015c-.154.091-.283.223-.372.382s-.136.341-.136.525v11.5c0 .276.105.541.293.736s.441.305.706.305c.182 0 .36-.052.516-.149l8.988-5.751c.3-.189.483-.527.483-.892s-.183-.704-.483-.892zm-8.505 4.798v-7.812l6.056 3.906-6.056 3.907z"/></symbol><symbol id="icon-instagram" viewBox="0 0 32 32"><path fill="#fcfcfb" style="fill:var(--color50,#fcfcfb)" d="M9.404.096C11.11.018 11.654 0 16 0s4.89.019 6.595.096 2.869.349 3.887.743a7.88 7.88 0 0 1 2.833 1.847 7.812 7.812 0 0 1 1.844 2.832c.396 1.018.666 2.182.745 3.884.078 1.709.096 2.253.096 6.598 0 4.346-.019 4.89-.096 6.596-.077 1.702-.349 2.865-.745 3.884a7.862 7.862 0 0 1-1.844 2.835 7.832 7.832 0 0 1-2.833 1.844c-1.018.396-2.182.666-3.884.745-1.707.078-2.252.096-6.598.096s-4.89-.019-6.596-.096c-1.702-.077-2.865-.349-3.884-.745a7.87 7.87 0 0 1-2.835-1.844 7.846 7.846 0 0 1-1.846-2.833C.445 25.464.175 24.3.096 22.598.018 20.889 0 20.345 0 16c0-4.346.019-4.89.096-6.595s.349-2.869.743-3.887a7.862 7.862 0 0 1 1.847-2.833A7.843 7.843 0 0 1 5.518.839C6.536.445 7.7.175 9.402.096h.001zm13.062 2.88c-1.688-.077-2.194-.093-6.466-.093s-4.778.016-6.466.093c-1.561.071-2.407.332-2.972.551a4.972 4.972 0 0 0-1.84 1.196 4.954 4.954 0 0 0-1.196 1.84c-.22.564-.48 1.411-.551 2.972-.077 1.688-.093 2.194-.093 6.466s.016 4.778.093 6.466c.071 1.561.332 2.407.551 2.971a4.97 4.97 0 0 0 1.196 1.84c.516.531 1.146.94 1.84 1.196.564.22 1.411.48 2.972.551 1.688.077 2.192.093 6.466.093s4.778-.016 6.466-.093c1.561-.071 2.407-.332 2.971-.551a4.972 4.972 0 0 0 1.84-1.196 4.962 4.962 0 0 0 1.196-1.84c.22-.564.48-1.411.551-2.971.077-1.688.093-2.194.093-6.466s-.016-4.778-.093-6.466c-.071-1.561-.332-2.407-.551-2.972a4.972 4.972 0 0 0-1.196-1.84 4.966 4.966 0 0 0-1.84-1.196c-.564-.22-1.411-.48-2.971-.551zm-8.51 17.957a5.337 5.337 0 1 0 3.843-9.957 5.34 5.34 0 0 0-7.078 4.243 5.35 5.35 0 0 0 1.324 4.367 5.327 5.327 0 0 0 1.912 1.347zm-3.771-10.748A8.232 8.232 0 0 1 16 7.776a8.23 8.23 0 0 1 7.598 5.077 8.233 8.233 0 0 1 0 6.294 8.225 8.225 0 1 1-13.413-8.962zm15.863-1.184a1.944 1.944 0 1 0-2.67-2.828 1.944 1.944 0 0 0 2.671 2.829z"/></symbol><symbol id="icon-twitter" viewBox="0 0 32 32"><path fill="none" stroke="#fcfcfb" style="stroke:var(--color50,#fcfcfb)" stroke-linejoin="round" stroke-width="2.667" d="M27.733 9.209c2.347 13.327-13.787 23.056-26.4 15.459 3.227.133 6.453-.799 8.8-2.665C2.8 20.004-.867 12.141 2.8 6.01c3.227 3.465 8.213 5.464 13.2 5.331-1.32-5.597 5.867-8.796 10.267-5.064 1.613 0 4.4-1.599 4.4-1.599s-1.027 2.799-2.933 4.531z"/></symbol><symbol id="icon-facebook" viewBox="0 0 32 32"><path fill="#fcfcfb" style="fill:var(--color50,#fcfcfb)" d="M0 16.089C0 24.044 5.777 30.658 13.333 32V20.444h-4V16h4v-3.556c0-4 2.577-6.221 6.223-6.221 1.155 0 2.4.177 3.555.355v4.089h-2.044c-1.956 0-2.4.977-2.4 2.223v3.111h4.267l-.711 4.444h-3.556v11.556C26.223 30.66 32 24.046 32 16.09 32 7.241 24.8.001 16 .001S0 7.241 0 16.09z"/></symbol><symbol id="suitcase" viewBox="0 0 32 32" fill="none"><path d="M10.667 9.333h10.666m-10.666 0H5.333A2.667 2.667 0 0 0 2.667 12v13.333A2.667 2.667 0 0 0 5.333 28h21.334a2.667 2.667 0 0 0 2.666-2.667V12a2.667 2.667 0 0 0-2.666-2.667h-16Zm0 0V4.8a.8.8 0 0 1 .8-.8h9.066a.8.8 0 0 1 .8.8v4.533H10.667Z" stroke="#2D2A22" stroke-width="2"/></symbol><symbol id="graph" viewBox="0 0 32 32" fill="none"><path d="M25.333 26.333h-21v-21" stroke="#2D2A22" stroke-width="2" stroke-linecap="round" stroke-linejoin="round"/><path d="m4.333 21.74 10.5-9.844 3.938 3.937 5.906-5.906" stroke="#2D2A22" stroke-width="2" stroke-linecap="round" stroke-linejoin="round"/></symbol><symbol id="home" viewBox="0 0 32 32" fill="none"><path d="M25.333 17.333v8.534a.8.8 0 0 1-.8.8H7.467a.8.8 0 0 1-.8-.8v-8.534M4 12.667l12-7.334 12 7.334H4Z" stroke="#2D2A22" stroke-width="2" stroke-linecap="round" stroke-linejoin="round"/></symbol><symbol id="star" viewBox="0 0 32 32" fill="none"><path d="M20.667 30h-9.334m9.334 0V16.933a.934.934 0 0 0-.934-.934h-7.466a.933.933 0 0 0-.934.934V30m9.334 0h8.4a.933.933 0 0 0 .933-.933v-3.578a.933.933 0 0 0-.933-.934H21.6a.934.934 0 0 0-.933.934V30Zm-9.334 0v-7.623a.933.933 0 0 0-.933-.933H2.933a.933.933 0 0 0-.933.933v6.69a.933.933 0 0 0 .933.933h8.4Zm2.81-24.714 1.414-2.998a.485.485 0 0 1 .886 0l1.416 2.998 3.16.483c.407.063.569.585.275.884l-2.287 2.333.54 3.295c.068.423-.355.747-.719.546L16 11.272l-2.828 1.555c-.362.2-.787-.123-.719-.546l.54-3.295-2.287-2.333c-.295-.299-.132-.821.273-.884l3.164-.482v-.001Z" stroke="#2D2A22" stroke-width="2" stroke-linecap="round" stroke-linejoin="round"/></symbol></defs></svg>