<svg width="24" height="24" viewBox="0 0 24 24" fill="none" xmlns="http://www.w3.org/2000/svg">
<g clip-path="url(#clip0_9_1192)">
<path d="M18.8611 20.2761C19.1284 20.0544 19.3846 19.8201 19.6296 19.5731M17.9096 12.0001C17.9082 10.5211 17.3518 9.09648 16.3504 8.00811C15.349 6.91974 13.9756 6.24689 12.5019 6.12267C11.0281 5.99846 9.56143 6.43195 8.39199 7.33736C7.22256 8.24277 6.43556 9.55414 6.18672 11.012C5.93788 12.4699 6.24531 13.9681 7.0482 15.2102C7.85109 16.4522 9.09094 17.3477 10.5224 17.7194C11.9539 18.091 13.4728 17.9119 14.7785 17.2173C16.0843 16.5227 17.0817 15.3633 17.5736 13.9686C17.7966 13.3362 17.9104 12.6706 17.9101 12.0001H17.9096Z" stroke="#FCFCFB" stroke-linecap="round" stroke-linejoin="round"/>
<path d="M22.75 12C22.7529 10.3331 22.368 8.68829 21.6259 7.19566C20.8838 5.70302 19.8048 4.40342 18.474 3.39953C17.1433 2.39564 15.5973 1.71497 13.9583 1.41132C12.3192 1.10766 10.632 1.18933 9.02998 1.64987C7.42793 2.11041 5.95492 2.93721 4.72736 4.06493C3.49979 5.19266 2.55131 6.5904 1.95684 8.14774C1.36237 9.70507 1.13821 11.3793 1.30207 13.0382C1.46593 14.697 2.01332 16.2951 2.90099 17.706L2.23399 21.766L6.29399 21.099C7.75573 22.0199 9.41827 22.574 11.1402 22.7144C12.8621 22.8547 14.5924 22.577 16.184 21.905" stroke="#FCFCFB" stroke-linecap="round" stroke-linejoin="round"/>
<path d="M17.5724 13.968C16.8504 15.729 18.0259 16.6765 19.0374 16.9065C20.2709 17.1865 22.7499 15.897 22.7499 12" stroke="#FCFCFB" stroke-linecap="round" stroke-linejoin="round"/>
</g>
<defs>
<clipPath id="clip0_9_1192">
<rect width="24" height="24" fill="white"/>
</clipPath>
</defs>
</svg>
