<svg aria-hidden="true" style="position: absolute; width: 0; height: 0; overflow: hidden;" version="1.1" xmlns="http://www.w3.org/2000/svg" xmlns:xlink="http://www.w3.org/1999/xlink">
<defs>
<symbol id="icon-navigation" viewBox="0 0 32 32">
<path fill="none" stroke="#fcfcfb" style="stroke: var(--color50, #fcfcfb)" stroke-linejoin="round" stroke-linecap="butt" stroke-miterlimit="4" stroke-width="1.5238" d="M7.879 4.069c-2.118 2.118-3.307 4.99-3.307 7.984v0.823c0.457 6.187 5.592 11.162 11.291 17.6 5.95-6.72 11.292-11.81 11.292-18.423 0-2.995-1.19-5.867-3.307-7.984s-4.99-3.307-7.984-3.307c-2.994 0-5.866 1.19-7.984 3.307zM18.882 7.545c0.894 0.597 1.59 1.446 2.001 2.439s0.518 2.086 0.308 3.14c-0.21 1.054-0.728 2.022-1.489 2.781s-1.729 1.276-2.783 1.485c-1.054 0.209-2.147 0.1-3.139-0.312s-1.84-1.11-2.436-2.004c-0.596-0.894-0.913-1.945-0.912-3.020 0.002-1.44 0.575-2.819 1.594-3.836s2.399-1.589 3.839-1.589c1.075 0 2.125 0.319 3.019 0.916z"></path>
</symbol>
<symbol id="icon-messages" viewBox="0 0 32 32">
<path fill="none" stroke="#fcfcfb" style="stroke: var(--color50, #fcfcfb)" stroke-linejoin="round" stroke-linecap="round" stroke-miterlimit="4" stroke-width="1.4207" d="M31.259 16.015c0.004-2.368-0.543-4.705-1.597-6.826s-2.588-3.967-4.478-5.393c-1.891-1.426-4.087-2.393-6.416-2.825s-4.726-0.315-7.002 0.339c-2.276 0.654-4.369 1.829-6.113 3.431s-3.092 3.588-3.936 5.801c-0.845 2.213-1.163 4.591-0.93 6.948s1.011 4.627 2.272 6.632l-0.948 5.768 5.768-0.948c2.077 1.308 4.439 2.096 6.885 2.295s4.905-0.195 7.166-1.15"></path>
</symbol>
<symbol id="icon-phone" viewBox="0 0 32 32">
<path fill="none" stroke="#fcfcfb" style="stroke: var(--color50, #fcfcfb)" stroke-linejoin="round" stroke-linecap="butt" stroke-miterlimit="4" stroke-width="1.6" d="M23.935 20.532c-0.406-0.136-0.84-0.164-1.261-0.083s-0.813 0.27-1.139 0.547c-0.424 0.432-1.648 1.64-2.92 2.888-4.557-2.241-8.243-5.929-10.48-10.488 1.24-1.272 2.4-2.488 2.872-2.912 0.277-0.327 0.466-0.719 0.547-1.139s0.053-0.855-0.083-1.261c-0.383-1.666-0.679-3.351-0.888-5.048-0.022-0.216-0.088-0.425-0.194-0.615s-0.249-0.356-0.421-0.488c-0.172-0.132-0.37-0.229-0.58-0.282s-0.43-0.064-0.644-0.030h-6.816c-0.282 0.025-0.545 0.149-0.744 0.35s-0.321 0.465-0.345 0.746c-0.44 6.152 2.992 12.736 3.688 14v0.048l0.096 0.184c2.492 4.321 6.079 7.909 10.4 10.4l0.352 0.2c1.6 0.848 7.96 4.048 13.904 3.608 0.284-0.020 0.552-0.14 0.756-0.339s0.33-0.465 0.355-0.748v-6.808c0.034-0.215 0.024-0.434-0.030-0.644s-0.15-0.408-0.282-0.58c-0.132-0.172-0.298-0.316-0.488-0.421s-0.399-0.172-0.615-0.194c-1.695-0.209-3.377-0.506-5.040-0.888z"></path>
</symbol>
<symbol id="icon-youtube" viewBox="0 0 32 32">
<path fill="#fcfcfb" style="fill: var(--color50, #fcfcfb)" d="M29.384 5.513c-0.866-0.65-3.28-1.513-13.392-1.513-10.837 0-12.445 0.991-12.961 1.315-2.746 1.72-3.006 9.333-3.031 10.876 0.033 2.039 0.349 8.822 3.029 10.5 0.515 0.324 2.114 1.309 12.963 1.309 10.119 0 12.53-0.859 13.392-1.506 2.341-1.755 2.61-7.799 2.616-10.329-0.006-2.034-0.211-8.846-2.616-10.652v0zM28.217 24.804c-0.348 0.261-2.347 1.114-12.225 1.114-9.551 0-11.554-0.773-11.933-1.011-0.964-0.603-1.981-3.803-2.061-8.721 0.079-4.907 1.11-8.49 2.063-9.085 0.38-0.239 2.391-1.018 11.931-1.018 9.87 0 11.875 0.858 12.225 1.12 0.855 0.642 1.772 4.024 1.785 8.968-0.013 5.022-0.935 7.995-1.785 8.632v0zM22.506 15.181l-8.989-5.749c-0.151-0.095-0.325-0.147-0.501-0.149s-0.352 0.044-0.506 0.134c-0.154 0.091-0.283 0.223-0.372 0.382s-0.136 0.341-0.136 0.525v11.5c0 0.276 0.105 0.541 0.293 0.736s0.441 0.305 0.706 0.305c0.182 0 0.36-0.052 0.516-0.149l8.988-5.751c0.3-0.189 0.483-0.527 0.483-0.892s-0.183-0.704-0.483-0.892v0zM14.001 19.979v-7.812l6.056 3.906-6.056 3.907z"></path>
</symbol>
<symbol id="icon-instagram" viewBox="0 0 32 32">
<path fill="#fcfcfb" style="fill: var(--color50, #fcfcfb)" d="M9.404 0.096c1.706-0.078 2.25-0.096 6.596-0.096s4.89 0.019 6.595 0.096c1.705 0.077 2.869 0.349 3.887 0.743 1.066 0.403 2.033 1.033 2.833 1.847 0.815 0.799 1.443 1.765 1.844 2.832 0.396 1.018 0.666 2.182 0.745 3.884 0.078 1.709 0.096 2.253 0.096 6.598 0 4.346-0.019 4.89-0.096 6.596-0.077 1.702-0.349 2.865-0.745 3.884-0.402 1.068-1.031 2.035-1.844 2.835-0.8 0.815-1.767 1.443-2.833 1.844-1.018 0.396-2.182 0.666-3.884 0.745-1.707 0.078-2.252 0.096-6.598 0.096s-4.89-0.019-6.596-0.096c-1.702-0.077-2.865-0.349-3.884-0.745-1.067-0.402-2.035-1.031-2.835-1.844-0.814-0.799-1.444-1.766-1.846-2.833-0.394-1.018-0.664-2.182-0.743-3.884-0.078-1.709-0.096-2.253-0.096-6.598 0-4.346 0.019-4.89 0.096-6.595s0.349-2.869 0.743-3.887c0.403-1.067 1.033-2.034 1.847-2.833 0.799-0.814 1.765-1.444 2.832-1.846 1.018-0.394 2.182-0.664 3.884-0.743h0.001zM22.466 2.976c-1.688-0.077-2.194-0.093-6.466-0.093s-4.778 0.016-6.466 0.093c-1.561 0.071-2.407 0.332-2.972 0.551-0.746 0.291-1.28 0.636-1.84 1.196-0.531 0.516-0.94 1.145-1.196 1.84-0.22 0.564-0.48 1.411-0.551 2.972-0.077 1.688-0.093 2.194-0.093 6.466s0.016 4.778 0.093 6.466c0.071 1.561 0.332 2.407 0.551 2.971 0.256 0.694 0.665 1.323 1.196 1.84 0.516 0.531 1.146 0.94 1.84 1.196 0.564 0.22 1.411 0.48 2.972 0.551 1.688 0.077 2.192 0.093 6.466 0.093s4.778-0.016 6.466-0.093c1.561-0.071 2.407-0.332 2.971-0.551 0.746-0.291 1.28-0.636 1.84-1.196 0.531-0.516 0.94-1.146 1.196-1.84 0.22-0.564 0.48-1.411 0.551-2.971 0.077-1.688 0.093-2.194 0.093-6.466s-0.016-4.778-0.093-6.466c-0.071-1.561-0.332-2.407-0.551-2.972-0.291-0.746-0.636-1.28-1.196-1.84-0.516-0.531-1.145-0.939-1.84-1.196-0.564-0.22-1.411-0.48-2.971-0.551zM13.956 20.933c1.141 0.475 2.412 0.539 3.596 0.181s2.206-1.115 2.893-2.143c0.687-1.028 0.995-2.262 0.873-3.492s-0.668-2.38-1.543-3.252c-0.558-0.558-1.233-0.985-1.976-1.251s-1.536-0.363-2.321-0.286c-0.785 0.077-1.544 0.328-2.221 0.734s-1.255 0.957-1.694 1.613c-0.438 0.656-0.726 1.401-0.842 2.182s-0.058 1.577 0.172 2.332c0.229 0.755 0.623 1.45 1.152 2.035s1.183 1.045 1.912 1.347zM10.185 10.185c0.764-0.764 1.67-1.369 2.668-1.783s2.068-0.626 3.147-0.626 2.15 0.213 3.147 0.626c0.998 0.413 1.904 1.019 2.668 1.783s1.369 1.67 1.783 2.668c0.413 0.998 0.626 2.068 0.626 3.147s-0.213 2.15-0.626 3.147c-0.413 0.998-1.019 1.904-1.783 2.668-1.542 1.542-3.634 2.409-5.815 2.409s-4.273-0.867-5.815-2.409c-1.542-1.542-2.409-3.634-2.409-5.815s0.866-4.273 2.409-5.815zM26.048 9.001c0.189-0.179 0.341-0.393 0.446-0.631s0.16-0.495 0.164-0.755c0.004-0.26-0.045-0.518-0.142-0.759s-0.243-0.46-0.427-0.644c-0.184-0.184-0.403-0.329-0.644-0.427s-0.499-0.146-0.759-0.142c-0.26 0.004-0.517 0.060-0.755 0.164s-0.453 0.256-0.631 0.446c-0.347 0.368-0.537 0.857-0.53 1.363s0.211 0.989 0.569 1.347c0.358 0.358 0.841 0.562 1.347 0.569s0.995-0.183 1.363-0.53z"></path>
</symbol>
<symbol id="icon-twitter" viewBox="0 0 32 32">
<path fill="none" stroke="#fcfcfb" style="stroke: var(--color50, #fcfcfb)" stroke-linejoin="round" stroke-linecap="butt" stroke-miterlimit="4" stroke-width="2.6667" d="M27.733 9.209c2.347 13.327-13.787 23.056-26.4 15.459 3.227 0.133 6.453-0.799 8.8-2.665-7.333-1.999-11-9.862-7.333-15.993 3.227 3.465 8.213 5.464 13.2 5.331-1.32-5.597 5.867-8.796 10.267-5.064 1.613 0 4.4-1.599 4.4-1.599s-1.027 2.799-2.933 4.531z"></path>
</symbol>
<symbol id="icon-facebook" viewBox="0 0 32 32">
<path fill="#fcfcfb" style="fill: var(--color50, #fcfcfb)" d="M0 16.089c0 7.955 5.777 14.569 13.333 15.911v-11.556h-4v-4.444h4v-3.556c0-4 2.577-6.221 6.223-6.221 1.155 0 2.4 0.177 3.555 0.355v4.089h-2.044c-1.956 0-2.4 0.977-2.4 2.223v3.111h4.267l-0.711 4.444h-3.556v11.556c7.556-1.341 13.333-7.955 13.333-15.911 0-8.849-7.2-16.089-16-16.089s-16 7.24-16 16.089z"></path>
</symbol>
<symbol id="suitcase" width="32" height="32" viewBox="0 0 32 32" fill="none">
<path d="M10.6667 9.33333H21.3334M10.6667 9.33333H5.33341C4.62617 9.33333 3.94789 9.61428 3.4478 10.1144C2.9477 10.6145 2.66675 11.2928 2.66675 12V25.3333C2.66675 26.0406 2.9477 26.7189 3.4478 27.219C3.94789 27.719 4.62617 28 5.33341 28H26.6667C27.374 28 28.0523 27.719 28.5524 27.219C29.0525 26.7189 29.3334 26.0406 29.3334 25.3333V12C29.3334 11.2928 29.0525 10.6145 28.5524 10.1144C28.0523 9.61428 27.374 9.33333 26.6667 9.33333H21.3334H10.6667ZM10.6667 9.33333V4.8C10.6667 4.58783 10.751 4.38434 10.9011 4.23431C11.0511 4.08429 11.2546 4 11.4667 4H20.5334C20.7456 4 20.9491 4.08429 21.0991 4.23431C21.2491 4.38434 21.3334 4.58783 21.3334 4.8V9.33333H10.6667Z" stroke="#2D2A22" stroke-width="2"/>
</symbol>
<symbol id="graph" width="32" height="32" viewBox="0 0 32 32" fill="none">
<path d="M25.3333 26.3334H4.33325V5.33337" stroke="#2D2A22" stroke-width="2" stroke-linecap="round" stroke-linejoin="round"/>
<path d="M4.33325 21.7396L14.8333 11.8959L18.7708 15.8334L24.677 9.92712" stroke="#2D2A22" stroke-width="2" stroke-linecap="round" stroke-linejoin="round"/>
</symbol>
<symbol id="home" width="32" height="32" viewBox="0 0 32 32" fill="none">
<path d="M25.3333 17.3334V25.8667C25.3333 26.0789 25.249 26.2824 25.099 26.4324C24.949 26.5824 24.7455 26.6667 24.5333 26.6667H7.46667C7.25449 26.6667 7.05101 26.5824 6.90098 26.4324C6.75095 26.2824 6.66667 26.0789 6.66667 25.8667V17.3334M4 12.6667L16 5.33337L28 12.6667H4Z" stroke="#2D2A22" stroke-width="2" stroke-linecap="round" stroke-linejoin="round"/>
</symbol>
<symbol id="star" width="32" height="32" viewBox="0 0 32 32" fill="none">
<path d="M20.6667 30H11.3333M20.6667 30V16.9326C20.6667 16.6851 20.5683 16.4477 20.3933 16.2726C20.2183 16.0976 19.9809 15.9993 19.7333 15.9993H12.2667C12.0191 15.9993 11.7817 16.0976 11.6067 16.2726C11.4317 16.4477 11.3333 16.6851 11.3333 16.9326V30M20.6667 30H29.0667C29.3142 30 29.5516 29.9017 29.7266 29.7266C29.9017 29.5516 30 29.3142 30 29.0666V25.4887C30 25.2411 29.9017 25.0037 29.7266 24.8286C29.5516 24.6536 29.3142 24.5553 29.0667 24.5553H21.6C21.3525 24.5553 21.1151 24.6536 20.94 24.8286C20.765 25.0037 20.6667 25.2411 20.6667 25.4887V30ZM11.3333 30V22.3774C11.3333 22.1298 11.235 21.8924 11.06 21.7174C10.8849 21.5423 10.6475 21.444 10.4 21.444H2.93333C2.6858 21.444 2.4484 21.5423 2.27337 21.7174C2.09833 21.8924 2 22.1298 2 22.3774V29.0666C2 29.3142 2.09833 29.5516 2.27337 29.7266C2.4484 29.9017 2.6858 30 2.93333 30H11.3333ZM14.1427 5.28557L15.5567 2.28785C15.5948 2.20216 15.657 2.12936 15.7357 2.07828C15.8144 2.02719 15.9062 2 16 2C16.0938 2 16.1856 2.02719 16.2643 2.07828C16.343 2.12936 16.4052 2.20216 16.4433 2.28785L17.8589 5.28557L21.0198 5.76937C21.4258 5.8316 21.5876 6.35429 21.2936 6.65298L19.0069 8.98643L19.5467 12.2813C19.6151 12.7044 19.192 13.028 18.828 12.8273L16 11.2717L13.172 12.8273C12.8096 13.0264 12.3849 12.7044 12.4533 12.2813L12.9931 8.98643L10.7064 6.65298C10.4109 6.35429 10.5742 5.8316 10.9787 5.76937L14.1427 5.28713V5.28557Z" stroke="#2D2A22" stroke-width="2" stroke-linecap="round" stroke-linejoin="round"/>
</symbol>
</defs>
</svg>
