<svg aria-hidden="true" style="position: absolute; width: 0; height: 0; overflow: hidden;" version="1.1" xmlns="http://www.w3.org/2000/svg" xmlns:xlink="http://www.w3.org/1999/xlink">
<defs>
<symbol id="icon-man-bike" viewBox="0 0 26 32">
<path fill="#000" style="fill: var(--color1, #000)" opacity="0.7" d="M0.612 31.419c3.392 1.044 6.983 0.070 10.499-0.046 1.609-0.052 3.22 0.075 4.826 0.168 2.539 0.145 5.083 0.203 7.625 0.258 0.773 0.017 1.572 0.029 2.286-0.308 0.17-0.081 0.361-0.241 0.315-0.444-0.046-0.212-0.296-0.244-0.49-0.232-3.418 0.191-6.839 0.035-10.254-0.136-3.431-0.171-6.87-0.354-10.303-0.212-0.923 0.038-1.856 0.18-2.776 0.171-0.652-0.003-1.346 0.093-1.727 0.78z"></path>
<path fill="#000" style="fill: var(--color1, #000)" opacity="0.7" d="M0.611 31.419c3.392 1.044 6.983 0.070 10.499-0.046 1.609-0.052 3.22 0.075 4.826 0.168 2.539 0.145 5.083 0.203 7.625 0.258 0.773 0.017 1.572 0.029 2.286-0.308 0.17-0.081 0.361-0.241 0.315-0.444-0.046-0.212-0.296-0.244-0.49-0.232-3.418 0.191-6.839 0.035-10.254-0.136-3.431-0.171-6.87-0.354-10.303-0.212-0.923 0.038-1.856 0.18-2.776 0.171-0.652-0.003-1.346 0.093-1.727 0.78z"></path>
<path fill="#00719a" style="fill: var(--color2, #00719a)" opacity="0.7" d="M9.206 10.862c-0.044 0.13-0.090 0.261-0.17 0.368-0.088 0.116-0.211 0.188-0.332 0.258-0.894 0.519-1.789 1.036-2.683 1.555-0.111-0.218-0.222-0.438-0.335-0.656 0.696-0.595 1.389-1.186 2.085-1.781 0.085-0.073 0.17-0.145 0.24-0.235 0.106-0.139 0.17-0.313 0.229-0.484 0.348-0.972 0.693-1.946 1.041-2.918 0.121-0.342 0.258-0.705 0.528-0.914 0.253-0.194 0.74-0.194 0.861 0.183 0.124 0.386-0.219 0.998-0.338 1.343-0.376 1.091-0.753 2.187-1.126 3.281z"></path>
<path fill="#404040" style="fill: var(--color3, #404040)" opacity="0.7" d="M6.354 13.282c-0.449-0.554-1.804-0.638-2.292-0.087-0.678 0.766 0.58 1.265 1.052 1.404 0.397 0.119 0.549-0.612 0.165-0.673-0.217-0.035-0.438-0.067-0.65-0.133-0.17-0.052-0.325-0.154-0.093-0.319 0.098-0.070 0.33-0.052 0.443-0.061 0.441-0.029 0.91 0.113 1.338 0.020 0.062-0.012 0.075-0.104 0.036-0.151z"></path>
<path fill="#333" style="fill: var(--color4, #333)" opacity="0.7" d="M8.445 30.253c0.614-0.598 1.041-1.387 1.16-2.361 0.26-2.17-0.681-4.426-2.436-5.508-1.351-0.832-3.263-1.247-4.725-0.392-2.653 1.552-3.135 6.579-0.809 8.592 1.774 1.529 5.050 1.383 6.81-0.331z"></path>
<path fill="#404040" style="fill: var(--color3, #404040)" opacity="0.7" d="M8.128 29.775c0.562-0.542 0.959-1.253 1.070-2.132 0.248-1.955-0.606-3.983-2.207-4.948-1.232-0.743-2.98-1.105-4.32-0.331-2.433 1.41-2.895 5.941-0.773 7.739 1.616 1.372 4.614 1.227 6.23-0.328z"></path>
<path fill="#ddd2c7" style="fill: var(--color5, #ddd2c7)" opacity="0.7" d="M11.925 19.306c-0.43 0.017-0.833 0.162-1.211 0.389-0.062 0.038-0.129 0.081-0.16 0.154-0.031 0.070-0.028 0.154-0.023 0.232 0.036 0.598 0.072 1.195 0.108 1.795 0.028 0.479 0.059 0.96 0.139 1.436 0.075 0.45 0.268 0.83 0.358 1.265 0.211 1.018 0.503 2.013 0.794 3.002 0.142-0.017 0.281-0.035 0.423-0.052 0 0-0.204-1.268-0.219-1.349-0.052-0.299-0.16-0.569-0.206-0.876-0.054-0.348-0.095-0.696-0.134-1.047-0.039-0.348-0.080-0.696-0.054-1.044 0.015-0.215 0.057-0.429 0.098-0.638 0.204-1.053 0.407-2.109 0.611-3.162-0.165-0.084-0.343-0.11-0.523-0.105z"></path>
<path fill="#737373" style="fill: var(--color6, #737373)" opacity="0.7" d="M11.438 12.388c-0.057 0.073-0.134 0.2-0.144 0.299-0.255 2.245-0.598 4.751-0.851 6.996 0.714 0.229 1.456 0.357 2.199 0.377 1.302-2.703 2.629-5.491 2.985-8.557-1.369 0.348-2.735 0.696-4.104 1.044-0.088 0.020-0.026-0.238-0.085-0.16z"></path>
<path fill="#333" style="fill: var(--color4, #333)" opacity="0.7" d="M22.716 25.322c-0.175-0.702-0.534-1.323-1.119-1.755-1.302-0.966-3.062-0.992-4.346 0.049-0.99 0.801-1.9 2.199-1.846 3.675 0.098 2.68 3.15 4.818 5.222 3.64 1.578-0.899 2.593-3.594 2.088-5.61z"></path>
<path fill="#404040" style="fill: var(--color3, #404040)" opacity="0.7" d="M22.372 25.435c-0.155-0.635-0.474-1.195-0.995-1.584-1.16-0.87-2.732-0.89-3.882 0.052-0.884 0.725-1.699 1.99-1.655 3.321 0.083 2.422 2.805 4.345 4.655 3.278 1.413-0.812 2.322-3.249 1.877-5.067z"></path>
<path fill="#ebebeb" style="fill: var(--color7, #ebebeb)" opacity="0.7" d="M19.435 26.175c-0.021-0.006-0.041-0.012-0.062-0.020-0.675-0.267-1.407-0.105-2.109-0.070-0.845 0.044-1.714-0.415-2.557-0.426-0.714-0.009-1.106-0.258-1.181-0.992-0.034-0.325-0.17-0.638-0.211-0.969-0.018-0.142-0.209-0.455-0.32-0.699-0.075-0.162-0.198-0.29-0.353-0.345-0.626-0.226-1.034-0.273-1.696-0.644-0.583-0.325-1.139-0.702-1.727-1.018-0.585-0.316-1.255-0.629-1.317-1.505-0.013-0.177 0.008-0.354 0.054-0.522 0.193-0.693 0.712-1.137 1.263-1.439 1.245-0.679 2.676-0.719 4.055-0.818 0.856-0.061 1.797-0.119 2.604-0.47 0.286-0.125 0.843-0.76 0.353-0.998-0.242-0.116-0.923 0.148-1.186 0.194-0.41 0.073-0.817 0.151-1.227 0.226-1.67 0.313-3.343 0.632-5.032 0.792-0.998 0.093-2.091 0.174-2.817 0.948-0.789 0.838-0.871 2.268-0.49 3.411 0.003 0.009 0.008 0.017 0.010 0.026 0.034 0.235 0.119 0.453 0.235 0.58 0.021 0.023 0.046 0.047 0.067 0.070 0.075 0.119 0.157 0.229 0.255 0.325 0.103 0.102 0.217 0.183 0.338 0.252 0.394 0.354 0.809 0.682 1.224 1.004 1.407 1.093 2.815 2.19 4.222 3.284 0.343 0.267 0.699 0.54 1.106 0.641 0.449 0.113 0.915 0.006 1.369-0.075 1.41-0.255 2.843-0.276 4.274-0.278 0.304 0.113 0.611 0.226 0.915 0.342-0.113-0.238 0.064-0.577-0.059-0.806z"></path>
<path fill="#ebebeb" style="fill: var(--color7, #ebebeb)" opacity="0.7" d="M5.51 14.227c-0.031-0.215-0.588-0.125-0.616 0.084-0.124 0.972-0.070 3.153-0.080 4.116-0.013 1.001-0.026 2.001-0.031 3.005-0.013 1.909-0.085 3.837-0.889 5.79-0.147 0.354 0.84 0.36 0.982 0.009 0.781-1.961 0.827-3.893 0.804-5.804-0.013-0.995-0.039-1.99-0.062-2.988-0.026-0.998 0.034-3.228-0.108-4.212z"></path>
<path fill="#3d322b" style="fill: var(--color8, #3d322b)" opacity="0.7" d="M10.502 27.999c-0.046 0.093-0.023 0.203 0.142 0.316 0.459 0.31 1.067 0.29 1.511-0.049 0.075-0.058 0.147-0.125 0.229-0.168 0.155-0.084 0.361-0.099 0.441-0.273 0.085-0.183-0.026-0.403-0.134-0.568-0.095-0.145-0.144-0.281-0.32-0.212-0.322 0.131-0.644 0.258-0.949 0.435-0.196 0.113-0.389 0.246-0.601 0.305-0.131 0.035-0.268 0.113-0.32 0.215z"></path>
<path fill="#4d4d4d" style="fill: var(--color9, #4d4d4d)" opacity="0.7" d="M13.5 26.079c-0.036-0.122-0.103-0.229-0.204-0.302-0.358-0.258-0.897-0.258-1.15 0.194-0.271 0.485-0.142 1.143 0.296 1.41 0.183 0.113 0.436 0.215 0.644 0.16 0.237-0.061 0.394-0.249 0.521-0.484 0.188-0.351 0.093-0.705-0.108-0.977z"></path>
<path fill="#4d4d4d" style="fill: var(--color9, #4d4d4d)" opacity="0.7" d="M13.255 23.596c-0.258 0.27-0.503 0.566-0.691 0.902-0.077 0.136 0.101 0.296 0.193 0.168 0.219-0.299 0.441-0.58 0.709-0.827 0.155-0.139-0.059-0.4-0.211-0.244z"></path>
<path fill="#4d4d4d" style="fill: var(--color9, #4d4d4d)" opacity="0.7" d="M12.571 24.527c0.039 0.682 0.15 1.36 0.253 2.030 0.031 0.209 0.317 0.119 0.284-0.087-0.111-0.656-0.188-1.326-0.307-1.978-0.026-0.145-0.237-0.116-0.229 0.035z"></path>
<path fill="#4d4d4d" style="fill: var(--color9, #4d4d4d)" opacity="0.7" d="M12.43 27.129c-0.059 0.229-0.088 0.467-0.111 0.705-0.021 0.194 0.010 0.47-0.044 0.676-0.237-0.020-0.467-0.029-0.701-0.099-0.266-0.078-0.379 0.403-0.113 0.479 0.317 0.090 0.657 0.151 0.979 0.061 0.077-0.020 0.139-0.116 0.137-0.212-0.008-0.223 0.034-0.458 0.041-0.685 0.010-0.284 0.049-0.56 0.085-0.838 0.023-0.203-0.219-0.293-0.273-0.087z"></path>
<path fill="#ebebeb" style="fill: var(--color7, #ebebeb)" opacity="0.7" d="M3.368 26.659c0.008 0.29 0.070 0.586 0.224 0.821 0.131 0.2 0.327 0.339 0.536 0.421 0.356 0.139 0.76 0.105 1.093-0.093s0.588-0.551 0.691-0.957c0.031-0.125 0.049-0.255 0.026-0.383-0.113-0.659-0.892-1.273-1.472-1.27-0.675 0-1.116 0.772-1.098 1.462z"></path>
<path fill="#ebebeb" style="fill: var(--color7, #ebebeb)" opacity="0.7" d="M17.836 27.117c0.008 0.29 0.070 0.586 0.224 0.821 0.131 0.2 0.327 0.339 0.536 0.42 0.356 0.139 0.76 0.105 1.093-0.093s0.588-0.551 0.691-0.957c0.031-0.125 0.049-0.255 0.026-0.383-0.113-0.658-0.892-1.273-1.472-1.27-0.675 0-1.116 0.772-1.098 1.462z"></path>
<path fill="#eaddd0" style="fill: var(--color10, #eaddd0)" opacity="0.7" d="M11.75 23.976c0.299-0.133 0.554-0.403 0.696-0.74-0.817-0.983-1.639-2.123-2.111-3.394-0.052-0.136-0.095-0.29-0.059-0.432 0.036-0.139 0.139-0.241 0.24-0.328 0.152-0.133 0.925-0.597 0.902-0.777-0.021-0.159-0.477-0.45-0.593-0.551-0.245-0.215-0.412-0.322-0.711-0.418-0.036-0.012-0.072-0.023-0.108-0.014-0.031 0.009-0.057 0.029-0.082 0.049-0.327 0.279-0.583 0.658-0.768 1.079-0.085 0.194-0.157 0.403-0.178 0.621-0.070 0.714 0.469 1.23 0.825 1.714 0.464 0.632 0.894 1.297 1.325 1.961 0.253 0.383 0.503 0.774 0.624 1.23z"></path>
<path fill="#6b6b6b" style="fill: var(--color11, #6b6b6b)" opacity="0.7" d="M15.359 11.622c0.276-0.087 0.562 0.081 0.657 0.394 0.43 1.413 0.137 3.127-0.773 4.22-0.492 0.592-1.124 0.995-1.745 1.389-0.67 0.426-1.343 0.853-2.013 1.279-0.366-0.569-0.807-1.073-1.297-1.491-0.062-0.052-0.126-0.107-0.157-0.191-0.054-0.154 0.034-0.322 0.119-0.455 0.42-0.658 0.895-1.276 1.232-1.996 0.34-0.719 0.539-1.572 0.358-2.358 1.222-0.151 2.431-0.418 3.619-0.792z"></path>
<path fill="#3d322b" style="fill: var(--color8, #3d322b)" opacity="0.7" d="M11.088 24.899c-0.008 0.107 0.054 0.194 0.245 0.209 0.528 0.041 1.072-0.293 1.345-0.827 0.046-0.090 0.088-0.189 0.144-0.27 0.108-0.154 0.289-0.276 0.299-0.473 0.010-0.209-0.173-0.348-0.332-0.441-0.139-0.081-0.235-0.177-0.366-0.026-0.242 0.281-0.487 0.566-0.696 0.882-0.137 0.203-0.26 0.423-0.43 0.586-0.106 0.101-0.201 0.244-0.209 0.36z"></path>
<path fill="#404040" style="fill: var(--color3, #404040)" opacity="0.7" d="M6.372 15.19c-0.539 0.029-1.088 0.070-1.629 0.046-0.124-0.006-0.247-0.014-0.371-0.026-0.356 0.023-0.706-0.348-0.266-0.69 0.168-0.2 0.755-0.064 0.954-0.012 0.33 0.087 0.472-0.484 0.139-0.571-0.67-0.177-2.351-0.029-1.859 1.212 0.454 1.149 2.307 0.624 3.062 0.287 0.106-0.049 0.103-0.252-0.031-0.247z"></path>
<path fill="#066984" style="fill: var(--color12, #066984)" opacity="0.7" d="M8.121 7.126c0.515 0.537 0.637 0.824 0.969 1.531 0.235 0.502 0.418 1.036 0.66 1.532 0.343 0.705 0.799 1.323 1.253 1.938 0.15 0.2 0.302 0.406 0.503 0.531 0.142 0.087 0.302 0.13 0.461 0.16 1.477 0.267 2.967-0.31 4.325 0.4 0.394-2.144-1.243-3.974-2.351-5.546-0.18-0.255-0.33-0.508-0.544-0.728-0.224-0.232-0.454-0.453-0.693-0.661-0.469-0.412-0.967-0.78-1.487-1.099-0.683-0.421-1.415-0.595-2.065 0.032-0.49 0.47-0.874 1.201-1.031 1.912z"></path>
<path fill="#eaddd0" style="fill: var(--color10, #eaddd0)" opacity="0.7" d="M6.371 2.561c-0.196 0.273-0.168 0.67-0.111 1.012 0.054 0.342 0.126 0.685 0.286 0.978 0.111 0.203 0.26 0.371 0.412 0.534 0.193 0.209 0.415 0.392 0.595 0.612 0.162 0.194 0.289 0.354 0.544 0.377 0.062 0.006 0.126 0.003 0.186-0.017 0.142-0.052 0.242-0.2 0.325-0.345 0.132-0.238 0.304-0.455 0.348-0.731 0.046-0.273-0.095-0.528-0.101-0.789-0.005-0.238 0.054-0.452-0.003-0.693-0.031-0.133-0.088-0.255-0.155-0.368-0.338-0.56-0.943-0.835-1.536-0.867-0.284-0.014-0.606 0.041-0.791 0.299z"></path>
<path fill="#00719a" style="fill: var(--color2, #00719a)" opacity="0.7" d="M5.7 13.92c-0.369-0.122-0.699-0.392-0.918-0.754 1.859-2.291 3.431-4.873 4.996-7.44 0.309 0.087 0.629 0.18 0.887 0.397s0.443 0.589 0.376 0.957c-0.054 0.29-0.247 0.516-0.431 0.725-1.717 1.949-3.356 3.991-4.91 6.114z"></path>
<path fill="#eaddd0" style="fill: var(--color10, #eaddd0)" opacity="0.7" d="M4.457 13.496c-0.237 0.058-0.477 0.116-0.691 0.244-0.072 0.044-0.142 0.096-0.183 0.171-0.044 0.075-0.054 0.183-0.008 0.258 0.101 0.165 0.361 0.067 0.482 0.212 0.028 0.035 0.046 0.081 0.075 0.116 0.064 0.072 0.168 0.075 0.26 0.070 0.204-0.009 0.415-0.020 0.601-0.116 0.237-0.122 0.402-0.366 0.557-0.603 0.015-0.026 0.034-0.052 0.039-0.081 0.008-0.052-0.018-0.104-0.049-0.145-0.116-0.165-0.338-0.319-0.531-0.305-0.077 0.006-0.129 0.052-0.198 0.084-0.113 0.049-0.237 0.067-0.353 0.096z"></path>
<path fill="#edddb2" style="fill: var(--color13, #edddb2)" opacity="0.7" d="M5.829 3.225c-0.17-0.238-0.235-0.58-0.162-0.882 0.070-0.293 0.253-0.528 0.456-0.708s0.433-0.313 0.65-0.479c0.317-0.241 0.598-0.545 0.83-0.896 0.031-0.046 0.082-0.096 0.119-0.055 0.021 0.113 0.041 0.226 0.062 0.342 0.095-0.142 0.196-0.29 0.338-0.357 0.268-0.133 0.619 0.052 0.848-0.165-0.034 0.812-0.335 1.595-0.791 2.199-0.33 0.438-0.737 0.783-1.181 1.038-0.412 0.232-0.807 0.461-1.168-0.038z"></path>
<path fill="#edddb2" style="fill: var(--color13, #edddb2)" opacity="0.7" d="M8.314 3.579c0.034-0.075 0.082-0.165 0.162-0.162 0.101 0.003 0.139 0.151 0.111 0.252s-0.093 0.194-0.082 0.302c0.010 0.093 0.072 0.168 0.126 0.241 0.201 0.278 0.299 0.635 0.268 0.98 0.17-0.548 0.394-1.076 0.668-1.572 0.119-0.215 0.247-0.426 0.309-0.667 0.054-0.209 0.059-0.429 0.044-0.644-0.018-0.249-0.062-0.505-0.198-0.711-0.209-0.316-0.606-0.455-0.964-0.418-0.361 0.038-0.688 0.226-0.974 0.452-0.222 0.177-0.972 0.745-0.634 1.125 0.178 0.2 0.528 0.072 0.753 0.183 0.235 0.11 0.407 0.368 0.412 0.638z"></path>
</symbol>
<symbol id="icon-man-in-laptop" viewBox="0 0 18 32">
<path fill="#f7ebe7" style="fill: var(--color14, #f7ebe7)" opacity="0.9" d="M7.843 8.398l-0.238 5.518-1.121 4.046h2.018l1.048-3.486 0.328-3.962-2.034-2.116z"></path>
<path fill="#fcc9a7" style="fill: var(--color15, #fcc9a7)" opacity="0.9" d="M7.786 27.684l0.406 2.187-1.363 0.187-0.388-2.154 1.344-0.221z"></path>
<path fill="#1f252a" style="fill: var(--color16, #1f252a)" opacity="0.9" d="M8.274 29.673c-0.035-0.118-0.144-0.16-0.218-0.084-0.146 0.149-0.408 0.333-0.795 0.288-0.402-0.046-0.553-0.32-0.611-0.518-0.031-0.103-0.116-0.156-0.193-0.112l-2.44 1.419c-0.147 0.086-0.264 0.246-0.322 0.446-0.055 0.187 0.055 0.39 0.207 0.385l4.215-0.135c0.166-0.004 0.293-0.194 0.278-0.413l-0.069-1.074c-0.002-0.017-0.004-0.036-0.009-0.053l-0.044-0.152z"></path>
<path fill="#092330" style="fill: var(--color17, #092330)" opacity="0.9" d="M7.763 17.107h-3.164c0 0-1.927-0.124-2.041 1.705s2.825 7.063 3.286 9.859l2.645-0.253-1.905-7.602 4.737 0.032c0.351 0.002 0.7-0.057 1.031-0.189 0.922-0.37 2.33-0.901 1.563-3.84l-6.153 0.288z"></path>
<path fill="#fcc9a7" style="fill: var(--color15, #fcc9a7)" opacity="0.9" d="M10.205 27.692l0.644 2.615-1.363 0.187-0.626-2.581 1.344-0.221z"></path>
<path fill="#1f252a" style="fill: var(--color16, #1f252a)" opacity="0.9" d="M10.93 30.109c-0.035-0.118-0.144-0.16-0.218-0.084-0.146 0.149-0.408 0.333-0.795 0.288-0.402-0.046-0.553-0.32-0.611-0.518-0.031-0.103-0.116-0.156-0.193-0.112l-2.44 1.419c-0.147 0.086-0.264 0.246-0.322 0.446-0.055 0.187 0.055 0.39 0.207 0.385l4.288-0.135c0.166-0.004 0.293-0.194 0.278-0.413l-0.144-1.074c-0.002-0.017-0.004-0.036-0.009-0.053l-0.042-0.152z"></path>
<path fill="#f7ebe7" style="fill: var(--color14, #f7ebe7)" opacity="0.9" d="M11.543 6.229c0.071 0.080 3.246 1.017 3.246 1.017l-0.679 2.086-3.471-0.303 0.904-2.8z"></path>
<path fill="#f7ebe7" style="fill: var(--color14, #f7ebe7)" opacity="0.9" d="M10.234 6.732c0 0-2.068 0.874-2.39 1.665 0.111 1.118 0.451 2.194 1.012 3.114 0.688 1.128 1.537 3.067 1.381 5.596h5.98c0 0-0.322-7.114-2.092-9.844l-3.89-0.531z"></path>
<path fill="#fcc9a7" style="fill: var(--color15, #fcc9a7)" opacity="0.9" d="M10.912 7.861c0.588-0.139 0.966-0.802 0.846-1.482l-0.351-1.989-2.127 0.503 0.351 1.989c0.12 0.68 0.693 1.118 1.281 0.979z"></path>
<path fill="#f4be9a" style="fill: var(--color18, #f4be9a)" opacity="0.9" d="M11.553 5.084c0 0-0.224 1.613-1.308 1.71-0.95 0.084-0.859-1.505-0.859-1.505l2.167-0.204z"></path>
<path fill="#fcc9a7" style="fill: var(--color15, #fcc9a7)" opacity="0.9" d="M10.33 5.909l0.187-0.051c0.941-0.253 1.526-1.339 1.308-2.425l-0.247-1.24c-0.218-1.088-1.157-1.766-2.096-1.514l-0.187 0.051c-0.941 0.253-1.526 1.339-1.308 2.425l0.247 1.24c0.218 1.088 1.157 1.766 2.096 1.514z"></path>
<path fill="#1c2226" style="fill: var(--color19, #1c2226)" opacity="0.9" d="M11.236 3.949c-0.044 0.086-0.086 0.217-0.1 0.415-0.016 0.25-0.126 0.488-0.307 0.627-0.522 0.4-0.921-0.613-1.692-0.434 0 0-0.302 0.053-0.362 0.442-0.060 0.387-0.48-0.291-0.573-0.754s-0.14 2.293 1.759 2.059c0 0 0.959-0.036 1.605-1.166 0.071-0.124 0.113-0.269 0.116-0.419 0.005-0.221-0.022-0.556-0.204-0.796-0.064-0.088-0.191-0.076-0.242 0.025z"></path>
<path fill="#1c2226" style="fill: var(--color19, #1c2226)" opacity="0.9" d="M11.238 3.324c0 0-0.82-0.314-0.682-1.701 0 0-2.038 2.232-3.548 0.594 0 0 0.675-0.208 0.953-0.743 0.508-0.975 1.967-2.318 3.135-0.764 0 0 1.421-0.255 1.013 2.278l-0.871 0.337z"></path>
<path fill="#fcc9a7" style="fill: var(--color15, #fcc9a7)" opacity="0.9" d="M11.238 3.324c0.078 0.387 0.413 0.63 0.748 0.541 0.337-0.091 0.544-0.478 0.468-0.865-0.078-0.387-0.413-0.629-0.748-0.541-0.337 0.091-0.546 0.478-0.468 0.865z"></path>
<path fill="#0c2c40" style="fill: var(--color20, #0c2c40)" opacity="0.9" d="M10.201 7.783l0.879 0.019-0.615 1.474-0.664-1.413 0.4-0.080z"></path>
<path fill="#fff7f3" style="fill: var(--color21, #fff7f3)" opacity="0.9" d="M11.832 6.294l-1.132 1.528 0.737 0.979 1.355-2.156c0 0-0.347-0.646-0.961-0.352z"></path>
<path fill="#fff7f3" style="fill: var(--color21, #fff7f3)" opacity="0.9" d="M10.201 7.783l-0.651 0.85-0.458-1.326c0 0 0.12-0.596 0.495-0.482l0.615 0.958z"></path>
<path fill="#0c2c40" style="fill: var(--color20, #0c2c40)" opacity="0.9" d="M10.441 8.8c0 0-0.85 2.564-0.639 6.202l0.837 0.884 0.977-1.088-1.053-6.164-0.122 0.166z"></path>
<path fill="#fcc9a7" style="fill: var(--color15, #fcc9a7)" opacity="0.9" d="M12.029 14.888l-1.819 0.693-0.12 1.236 2.412-0.834-0.473-1.095z"></path>
<path fill="#fcc9a7" style="fill: var(--color15, #fcc9a7)" opacity="0.9" d="M10.481 16.398c0 0.722-0.506 1.309-1.132 1.309-0.624 0-1.132-0.585-1.132-1.309 0-0.722 0.506-1.309 1.132-1.309 0.624 0 1.132 0.585 1.132 1.309z"></path>
<path fill="#0c2c40" style="fill: var(--color20, #0c2c40)" opacity="0.9" d="M10.234 17.107h-3.162c0 0-1.927-0.124-2.041 1.705s3.042 7.4 3.502 10.194l2.645-0.253-2.121-7.939 4.737 0.032c0.351 0.002 0.7-0.057 1.031-0.189 0.922-0.37 2.33-0.901 1.563-3.84l-6.154 0.291z"></path>
<path fill="#b2b2b2" style="fill: var(--color22, #b2b2b2)" opacity="0.9" d="M0.695 10.638h5.467c0.18 0 0.335 0.145 0.373 0.349l1.030 5.587c0.051 0.274-0.131 0.533-0.373 0.533h-5.558c-0.182 0-0.338-0.149-0.373-0.356l-0.939-5.587c-0.047-0.274 0.133-0.526 0.373-0.526z"></path>
<path fill="#d1d1d1" style="fill: var(--color23, #d1d1d1)" opacity="0.9" d="M0.381 10.638h5.465c0.18 0 0.335 0.145 0.373 0.349l1.030 5.587c0.051 0.274-0.129 0.533-0.373 0.533h-5.556c-0.182 0-0.338-0.149-0.373-0.356l-0.939-5.587c-0.047-0.274 0.133-0.526 0.373-0.526z"></path>
<path fill="#b2b2b2" style="fill: var(--color22, #b2b2b2)" opacity="0.9" d="M7.416 16.629h3.735c0.115 0 0.206 0.107 0.206 0.238 0 0.133-0.093 0.238-0.206 0.238h-3.808l0.073-0.476z"></path>
<path fill="#fff" style="fill: var(--color24, #fff)" opacity="0.9" d="M3.764 13.726c0 0.381-0.266 0.688-0.595 0.688s-0.595-0.309-0.595-0.688c0-0.381 0.267-0.688 0.595-0.688 0.329 0 0.595 0.307 0.595 0.688z"></path>
<path fill="#f7ebe7" style="fill: var(--color14, #f7ebe7)" opacity="0.9" d="M13.484 9.233l1.998 3.733-4.781 1.975 0.655 1.638c0 0 4.088-0.531 6.064-2.293 0.182-0.162 0.273-0.425 0.242-0.688-0.093-0.842-0.489-2.886-2.179-5.792-0.344-0.592-1.028-0.771-1.561-0.413-0.555 0.371-0.749 1.192-0.437 1.84z"></path>
</symbol>
<symbol id="icon-Illustration---pavan-704" viewBox="0 0 15 32">
<path fill="#000" style="fill: var(--color1, #000)" opacity="0.7" d="M12.426 31.89c0.923 0.009 1.974-0.023 2.564-0.528 0.137-0.119 0.242-0.267 0.222-0.421-0.047-0.331-0.605-0.473-1.063-0.528-2.67-0.319-5.401-0.194-8.105-0.070-1.688 0.079-3.394 0.159-5.003 0.528-0.838 0.191-1.504 0.694-0.447 0.914 1.025 0.215 2.597 0.009 3.672 0.020 2.719 0.029 5.441 0.058 8.161 0.084z"></path>
<path fill="#000" style="fill: var(--color1, #000)" opacity="0.7" d="M12.426 31.89c0.923 0.009 1.974-0.023 2.565-0.528 0.137-0.119 0.242-0.267 0.222-0.421-0.047-0.331-0.605-0.473-1.063-0.528-2.67-0.319-5.401-0.194-8.105-0.070-1.688 0.079-3.394 0.159-5.003 0.528-0.838 0.191-1.504 0.694-0.447 0.914 1.025 0.215 2.597 0.009 3.672 0.020 2.719 0.029 5.442 0.058 8.161 0.084z"></path>
<path fill="#f0dcce" style="fill: var(--color25, #f0dcce)" opacity="0.7" d="M5.354 11.304c0.012 0.348-0.015 0.69 0.003 1.038 0.003 0.061 0.009 0.125 0.041 0.177 0.050 0.084 0.152 0.116 0.245 0.139 0.993 0.249 2.024 0.328 3.044 0.232 0.21-0.020 0.459-0.075 0.537-0.281 0.061-0.162-0.012-0.342-0.076-0.502-0.307-0.772-0.076-1.52 0.055-2.341-0.806-0.012-1.937-0.11-2.74-0.064-0.199 0.012-0.643-0.043-0.838-0.012-0.222 0.038-0.181 0.145-0.219 0.377-0.067 0.392-0.070 0.653-0.053 1.236z"></path>
<path fill="#d9924e" style="fill: var(--color26, #d9924e)" opacity="0.7" d="M5.369 5.448c-0.251 0.278-0.342 0.658-0.423 1.024-0.28 1.25-0.561 2.5-0.841 3.751-0.038 0.168-0.076 0.336-0.131 0.499-0.126 0.363-0.345 0.737-0.237 1.105 0.079 0.267 0.345 0.47 0.625 0.479 0.055 0.003 0.114-0.006 0.164-0.029 0.12-0.058 0.166-0.2 0.199-0.328 0.313-1.143 0.66-2.277 1.101-3.379 0.231-0.574 0.488-1.143 0.596-1.749 0.073-0.406 0.169-1.102-0.055-1.482-0.21-0.363-0.78-0.131-0.996 0.11z"></path>
<path fill="#441a19" style="fill: var(--color27, #441a19)" opacity="0.7" d="M9.812 12.929c-0.158-0.302-0.178-0.476-0.485-0.624-0.202-0.096-0.318-0.012-0.54-0.026-0.672-0.043-1.487-0.067-2.158-0.064-0.406 0.003-1.165 0.044-1.37 0.392-0.085 0.145-0.453 0.798-0.47 0.966-0.167 1.694 0.044 2.129 0.023 4.041-0.009 0.986 0.152 2.347 0.166 3.333 0.020 1.308 0.304 2.808 0.336 4.116 0.015 0.65 0.041 1.039-0.018 1.688-0.032 0.354-0.137 0.478 0.205 0.595 0.085 0.029 0.272 0.061 0.301-0.026 0.266-0.789 0.219-1.381 0.318-2.207 0.348-2.976 0.961-5.543 0.99-8.536l0.342 0.003c-0.026 1.885 0.301 3.661 0.359 5.546 0.050 1.514 0.123 3.025 0.228 4.537 0.015 0.2 0.032 0.415 0.155 0.577s0.386 0.232 0.529 0.087c0.117-1.897 0.237-3.797 0.523-5.676 0.184-1.201 0.435-2.39 0.555-3.6 0.073-0.751 0.169-1.674 0.193-2.428 0.015-0.528 0.015-0.528 0-1.314-0.003-0.339 0.099-0.838-0.181-1.378z"></path>
<path fill="#d9924e" style="fill: var(--color26, #d9924e)" opacity="0.7" d="M10.139 6.446c-0.038-0.267-0.096-0.537-0.242-0.763-0.167-0.255-0.427-0.432-0.686-0.589-0.202-0.122-0.421-0.241-0.657-0.255-0.213-0.015-0.424 0.058-0.628 0.119-0.57 0.168-1.095 0.191-1.679 0.128-0.473-0.052-0.584 0.423-0.71 0.801-0.365 1.105-0.058 2.306-0.117 3.466-0.009 0.177-0.029 0.354-0.053 0.528l3.905 0.113c0.023-1.050 1.016-2.515 0.867-3.547z"></path>
<path fill="#2b2b2b" style="fill: var(--color28, #2b2b2b)" opacity="0.7" d="M4.794 29.938c-0.035-0.003-0.073-0.003-0.105 0.015-0.038 0.020-0.055 0.064-0.073 0.102-0.219 0.502-0.721 0.879-1.268 0.913-0.549 0.038-1.113-0.293-1.314-0.801-0.085-0.215-0.108-0.45-0.146-0.679-0.053-0.325-0.14-0.647-0.155-0.975-0.015-0.331 0.053-0.679 0.272-0.925 0.117 0.354 0.283 0.693 0.494 1.004 0.12 0.177 0.26 0.348 0.444 0.453 0.123 0.069 0.26 0.107 0.397 0.145 0.301 0.081 0.599 0.162 0.9 0.244 0.33 0.090 0.666 0.18 1.008 0.183 0.137 0.003 0.634 0.095 0.374 0.304-0.181 0.136-0.625 0.029-0.827 0.017z"></path>
<path fill="#dbdbdb" style="fill: var(--color29, #dbdbdb)" opacity="0.7" d="M8.056 12.526c-0.091-0.142-0.225-0.29-0.394-0.284-0.085 0.003-0.167 0.043-0.245 0.072-0.204 0.075-0.429 0.078-0.648 0.084-0.461 0.009-0.926 0.017-1.387 0.026-0.12 0.003-0.242 0.006-0.345 0.070-0.123 0.078-0.181 0.241-0.137 0.38 0.009 0.026 0.023 0.052 0.044 0.073 0.026 0.026 0.064 0.035 0.102 0.046 0.263 0.067 0.535 0.096 0.806 0.087 0.216-0.006 0.429-0.035 0.643-0.067l1.618-0.313c0.009-0.064-0.023-0.122-0.056-0.174z"></path>
<path fill="#2b2b2b" style="fill: var(--color28, #2b2b2b)" opacity="0.7" d="M8.865 30.159c0.093 0.287 0.222 0.571 0.447 0.771 0.275 0.241 0.666 0.328 1.028 0.279s0.698-0.223 0.99-0.444c0.196-0.151 0.377-0.325 0.508-0.534 0.196-0.313 0.272-0.685 0.321-1.050 0.079-0.603 0.093-1.238-0.158-1.795-0.248-0.557-0.818-1.007-1.428-0.954-0.593 0.049-1.551 0.58-1.744 1.178-0.263 0.809-0.225 1.743 0.035 2.55z"></path>
<path fill="#d9d9d9" style="fill: var(--color30, #d9d9d9)" opacity="0.7" d="M10.034 28.215c-0.009-0.221-0.012-0.441 0.018-0.662 0.026-0.186 0.076-0.377 0.196-0.522 0.184-0.223 0.488-0.305 0.777-0.331 0.067-0.006 0.137-0.009 0.202 0.015 0.067 0.023 0.123 0.072 0.175 0.122 0.123 0.11 0.245 0.223 0.339 0.357 0.099 0.145 0.164 0.316 0.213 0.484 0.161 0.548 0.19 1.134 0.088 1.697l-0.021 0.101c-0.073 0.226-0.126 0.371-0.239 0.583-0.091 0.168-0.199 0.334-0.353 0.447s-0.441-0.017-0.616-0.095c-0.105-0.047-0.184-0.134-0.254-0.223-0.424-0.548-0.497-1.279-0.523-1.972z"></path>
<path fill="#2b2b2b" style="fill: var(--color28, #2b2b2b)" opacity="0.7" d="M10.801 28.186c0.020-0.070 0.044-0.139 0.096-0.191 0.108-0.107 0.307-0.073 0.415 0.038s0.146 0.267 0.172 0.418c0.047 0.281 0.053 0.589-0.093 0.835-0.061 0.104-0.169 0.203-0.292 0.191-0.152-0.015-0.237-0.18-0.289-0.322-0.050-0.128-0.099-0.258-0.126-0.395-0.044-0.206 0.055-0.377 0.117-0.574z"></path>
<path fill="#e5e5e5" style="fill: var(--color31, #e5e5e5)" opacity="0.7" d="M2.296 26.617c0.137-0.105 0.295-0.174 0.456-0.232 0.301-0.11 0.628-0.183 0.941-0.11 0.365 0.087 0.657 0.363 0.882 0.661 0.143 0.191 0.275 0.406 0.476 0.534 0.114 0.072 0.263 0.11 0.397 0.093 0.272 0.087 0.628 0.061 0.844 0.061 0.383 0 0.771-0.026 1.154 0 0.277 0.020 0.543 0.075 0.824 0.035 0.018-0.003 0.032-0.006 0.044-0.012 0.237-0.032 0.318-0.325 0.397-0.551 0.091-0.261 0.251-0.499 0.461-0.684 0.254-0.223 0.593-0.351 0.932-0.366 0.275-0.012 0.774 0.058 0.929 0.319-0.4 0.229-0.882 0.368-1.3 0.574-0.24 0.116-0.482 0.246-0.648 0.449-0.169 0.209-0.245 0.473-0.318 0.731-0.102 0.365-0.204 0.742-0.152 1.117 0.006 0.044 0.015 0.096-0.012 0.133-0.020 0.032-0.061 0.047-0.099 0.058-0.213 0.067-0.429 0.104-0.648 0.142-0.508 0.090-1.019 0.183-1.528 0.273-0.108 0.020-0.216 0.038-0.324 0.032-0.149-0.009-0.289-0.063-0.429-0.107-0.324-0.099-0.663-0.136-0.999-0.18-0.535-0.070-1.072-0.165-1.557-0.397s-0.917-0.618-1.092-1.122c-0.181-0.502-0.058-1.125 0.371-1.45z"></path>
<path fill="#2b2b2b" style="fill: var(--color28, #2b2b2b)" opacity="0.7" d="M7.645 28.032c-0.28 0.197-0.529 0.444-0.83 0.612-0.044 0.023-0.088 0.046-0.12 0.084-0.096 0.11-0.029 0.293 0.093 0.371s0.277 0.081 0.421 0.081c0.286 0 0.575 0.003 0.862 0.003 0.111 0 0.242-0.009 0.298-0.104 0.041-0.067 0.026-0.151 0.018-0.229-0.021-0.168-0.015-0.339 0.015-0.505 0.018-0.090 0.041-0.18 0.073-0.267 0.021-0.058 0.117-0.191 0.114-0.25-0.029-0.311-0.818 0.116-0.943 0.203z"></path>
<path fill="#2b2b2b" style="fill: var(--color28, #2b2b2b)" opacity="0.7" d="M5.258 28.644c-0.038 0.084-0.082 0.171-0.155 0.229-0.088 0.070-0.207 0.090-0.321 0.104-0.497 0.061-0.999 0.052-1.493-0.017-0.079-0.012-0.178-0.041-0.193-0.119-0.015-0.075 0.058-0.136 0.126-0.18 0.386-0.247 0.783-0.479 1.18-0.711 0.131-0.076 0.263-0.151 0.406-0.197 0.158-0.049 0.634-0.157 0.719 0.049 0.076 0.183-0.19 0.67-0.269 0.841z"></path>
<path fill="#2b2b2b" style="fill: var(--color28, #2b2b2b)" opacity="0.7" d="M7.596 29.396c-0.31 0.038-0.619 0.078-0.923 0.154-0.091 0.023-0.187 0.052-0.257 0.113-0.073 0.061-0.117 0.165-0.082 0.253 0.056 0.139 0.248 0.148 0.397 0.133 0.572-0.055 1.145-0.11 1.717-0.168 0.070-0.006 0.149-0.017 0.202-0.064 0.067-0.061 0.076-0.165 0.064-0.255-0.035-0.299-0.105-0.293-0.377-0.258-0.245 0.032-0.494 0.061-0.742 0.093z"></path>
<path fill="#2b2b2b" style="fill: var(--color28, #2b2b2b)" opacity="0.7" d="M8.43 10.962c-0.155 0.003-0.298 0.078-0.412 0.18-0.114 0.104-0.196 0.235-0.266 0.368-0.035 0.070-0.070 0.139-0.088 0.215-0.020 0.078-0.023 0.162-0.015 0.244 0.047 0.452 0.459 0.827 0.911 0.89 0.12 0.017 0.251 0.012 0.353-0.049 0.073-0.043 0.126-0.113 0.166-0.183 0.193-0.322 0.19-0.708 0.053-1.050-0.117-0.293-0.351-0.624-0.704-0.615z"></path>
<path fill="#2b2b2b" style="fill: var(--color28, #2b2b2b)" opacity="0.7" d="M6.178 12.253c0.126-0.061 0.239-0.154 0.301-0.278 0.041-0.084 0.055-0.177 0.064-0.273 0.012-0.165-0.012-0.357-0.146-0.452-0.111-0.081-0.269-0.070-0.394-0.012s-0.225 0.157-0.327 0.249c-0.257 0.235-0.537 0.444-0.853 0.592-0.272 0.128-0.564 0.206-0.838 0.328-0.108 0.049-0.216 0.107-0.292 0.197-0.073 0.087-0.111 0.203-0.094 0.313s0.091 0.215 0.196 0.258c0.050 0.020 0.105 0.029 0.161 0.032 0.295 0.020 0.596-0.043 0.853-0.189 0.181-0.099 0.339-0.235 0.517-0.334 0.152-0.084 0.318-0.142 0.453-0.255 0.114-0.099 0.263-0.11 0.4-0.177z"></path>
<path fill="#404040" style="fill: var(--color3, #404040)" opacity="0.7" d="M5.353 25.877c-0.029-0.003-0.061-0.009-0.088 0.003-0.079 0.026-0.088 0.133-0.085 0.215 0.009 0.313-0.009 0.627-0.055 0.934-0.018 0.116-0.041 0.235-0.105 0.333-0.064 0.096-0.164 0.162-0.257 0.232-0.213 0.157-0.406 0.333-0.578 0.531-0.061 0.073-0.123 0.148-0.146 0.241-0.038 0.157 0.047 0.328 0.181 0.424 0.131 0.096 0.301 0.13 0.464 0.136 0.079 0.003 0.164 0 0.237-0.029 0.082-0.035 0.146-0.105 0.207-0.171 0.193-0.215 0.388-0.429 0.581-0.644 0.12-0.131 0.239-0.267 0.321-0.424 0.193-0.38 0.123-0.815 0.105-1.221-0.006-0.157 0.055-0.386-0.070-0.47-0.143-0.093-0.54-0.067-0.713-0.090z"></path>
<path fill="#d9d9d9" style="fill: var(--color30, #d9d9d9)" opacity="0.7" d="M6.736 18.556c0.079 1.088 0.055 2.199 0.073 3.289 0.020 1.163-0.091 2.32-0.202 3.478-0.079 0.832-0.304 2.437-0.383 3.269-0.015 0.145-0.029 0.296-0.105 0.421-0.073 0.125-0.225 0.221-0.368 0.18-0.219-0.061-0.254-0.351-0.242-0.58 0.134-2.567 0.28-5.79 0.415-8.357 0.023-0.464 0.026-0.853 0.003-1.317-0.023-0.438 0.021-0.899 0.012-1.497-0.032-2.144 0.117-2.706 0.447-4.76 0.029-0.189 0.067-0.389 0.207-0.519 0.415-0.389 0.561 0.255 0.432 0.551-0.216 0.496-0.26 0.96-0.313 1.508-0.117 1.273-0.073 0.937-0.064 2.219 0.012 0.708 0.038 1.41 0.088 2.115z"></path>
<path fill="#404040" style="fill: var(--color3, #404040)" opacity="0.7" d="M8.88 25.842c0.032 0.136 0.018 0.281 0.003 0.421-0.088 0.8-0.175 1.598-0.263 2.399-0.009 0.081-0.021 0.168-0.076 0.232-0.047 0.055-0.12 0.078-0.19 0.098-0.207 0.064-0.432 0.119-0.64 0.058s-0.383-0.287-0.31-0.49c0.041-0.11 0.14-0.189 0.213-0.281 0.181-0.229 0.196-0.542 0.202-0.832 0.012-0.45-0.056-0.978 0.032-1.416 0.044-0.209 0.108-0.192 0.31-0.174 0.242 0.017 0.479 0.020 0.719-0.015z"></path>
<path fill="#f0dcce" style="fill: var(--color25, #f0dcce)" opacity="0.7" d="M4.070 12.824c0.006 0.194 0.067 0.406 0.237 0.508 0.19 0.116 0.435 0.046 0.634-0.049 0.041-0.020 0.082-0.041 0.12-0.073 0.114-0.096 0.143-0.255 0.158-0.403 0.006-0.049 0.009-0.099-0.006-0.145-0.026-0.081-0.108-0.133-0.146-0.212-0.070-0.148 0.032-0.357-0.085-0.47-0.061-0.061-0.161-0.064-0.245-0.055-0.175 0.017-0.348 0.067-0.508 0.145-0.24 0.116-0.164 0.528-0.158 0.754z"></path>
<path fill="#f0dcce" style="fill: var(--color25, #f0dcce)" opacity="0.7" d="M8.325 11.597c0.207 0.113 0.415 0.229 0.613 0.36 0.085 0.058 0.169 0.119 0.269 0.145s0.216 0.012 0.286-0.064c0.067-0.075 0.067-0.191 0.029-0.281-0.038-0.093-0.108-0.165-0.178-0.238-0.204-0.212-0.412-0.426-0.678-0.557-0.134-0.067-0.289-0.11-0.438-0.093-0.199 0.023-0.494 0.232-0.491 0.458 0 0.206 0.397 0.165 0.587 0.27z"></path>
<path fill="#d9924e" style="fill: var(--color26, #d9924e)" opacity="0.7" d="M9.272 5.376c0.161 0.041 0.289 0.162 0.4 0.281 0.155 0.165 0.301 0.345 0.418 0.54 0.204 0.345 0.315 0.734 0.426 1.12 0.21 0.74 0.421 1.479 0.631 2.219 0.058 0.2 0.114 0.409 0.079 0.615-0.050 0.273-0.251 0.487-0.447 0.687-0.204 0.209-0.412 0.418-0.616 0.627-0.126 0.128-0.254 0.258-0.415 0.339s-0.362 0.104-0.52 0.012c-0.207-0.119-0.266-0.403-0.196-0.632 0.070-0.226 0.242-0.406 0.415-0.571s0.353-0.328 0.461-0.54c0.155-0.31 0.129-0.685 0.015-1.012s-0.301-0.624-0.467-0.928c-0.315-0.586-0.54-1.218-0.669-1.868-0.061-0.325-0.058-1.027 0.485-0.888z"></path>
<path fill="#d7c68e" style="fill: var(--color32, #d7c68e)" opacity="0.7" d="M6.508 5.001c-0.111 0.113-0.269 0.171-0.403 0.258-0.286 0.191-0.459 0.542-0.426 0.885 0.012 0.13 0.050 0.267 0 0.389-0.050 0.125-0.184 0.218-0.187 0.354s0.131 0.235 0.263 0.27c0.254 0.067 0.532-0.023 0.73-0.194s0.321-0.412 0.397-0.661c0.032-0.104 0.058-0.218 0.129-0.302 0.12-0.151 0.336-0.183 0.491-0.299 0.169-0.125 0.251-0.342 0.26-0.551 0.012-0.209-0.041-0.418-0.096-0.621-0.026-0.099-0.055-0.2-0.134-0.264-0.076-0.058-0.178-0.067-0.275-0.070-0.158-0.009-0.321-0.014-0.464 0.052-0.371 0.174-0.047 0.513-0.283 0.754z"></path>
<path fill="#f0dcce" style="fill: var(--color25, #f0dcce)" opacity="0.7" d="M5.983 3.003c0.114 0.513 0.263 1.056 0.663 1.398 0.292 0.249 0.698 0.357 1.078 0.284 0.377-0.072 0.716-0.322 0.894-0.658 0.085-0.16 0.134-0.336 0.175-0.513 0.131-0.58 0.178-1.181 0.131-1.772-0.018-0.209-0.050-0.429-0.199-0.577-0.152-0.151-0.383-0.186-0.596-0.212-0.438-0.052-0.885-0.107-1.32-0.017-0.362 0.073-0.847 0.305-1.005 0.67-0.166 0.377 0.088 1.001 0.178 1.398z"></path>
<path fill="#d7c68e" style="fill: var(--color32, #d7c68e)" opacity="0.7" d="M5.623 1.602c0.035-0.203 0.096-0.406 0.202-0.586 0.245-0.423 0.71-0.682 1.186-0.806 0.672-0.177 1.417-0.113 2.021 0.232 0.605 0.342 1.046 0.977 1.098 1.665 0.032 0.409-0.070 0.818-0.199 1.21-0.093 0.281-0.193 0.615-0.017 0.856 0.201 0.278 0.695 0.31 0.777 0.644 0.079 0.328-0.342 0.63-0.248 0.954 0.041 0.148 0.178 0.244 0.266 0.371 0.187 0.278 0.079 0.69-0.19 0.891s-0.654 0.206-0.961 0.064c-0.102-0.046-0.199-0.11-0.266-0.194-0.117-0.145-0.149-0.339-0.149-0.525 0.003-0.464 0.169-0.957-0.032-1.375-0.158-0.328-0.535-0.58-0.514-0.943 0.015-0.261 0.245-0.493 0.202-0.751-0.035-0.206-0.228-0.339-0.342-0.513-0.161-0.244-0.158-0.554-0.213-0.841s-0.225-0.6-0.517-0.632c-0.231-0.026-0.447 0.133-0.678 0.133-0.129 0-0.254-0.049-0.383-0.070-0.128-0.017-0.28 0.009-0.348 0.119-0.044 0.070-0.041 0.16-0.035 0.241 0.012 0.229 0.020 0.458 0.032 0.687 0.012 0.267 0.012 0.568-0.178 0.76-0.029 0.029-0.064 0.058-0.070 0.096-0.006 0.032 0.006 0.064 0.018 0.093 0.041 0.102 0.155 0.267 0.085 0.371-0.263-0.215-0.415-0.693-0.494-1.012-0.047-0.189-0.073-0.38-0.082-0.574-0.018-0.189 0.041-0.383 0.029-0.563z"></path>
</symbol>
<symbol id="icon-three-persons" viewBox="0 0 29 32">
<path fill="#000" style="fill: var(--color1, #000)" opacity="0.7" d="M14.527 31.337c0.7-0.014 1.401-0.026 2.099-0.103 0.349-0.037 0.699-0.091 1.033-0.208 0.263-0.091 0.539-0.245 0.66-0.534 0.017-0.040 0.032-0.086 0.024-0.131-0.005-0.046-0.029-0.083-0.059-0.114-0.141-0.163-0.361-0.169-0.558-0.166-1.933 0.032-3.865 0.074-5.793 0.257-0.346 0.034-0.739 0.1-0.938 0.434-0.436 0.728 1.065 0.568 1.336 0.577 0.734 0.017 1.465 0.003 2.196-0.011z"></path>
<path fill="#000" style="fill: var(--color1, #000)" opacity="0.7" d="M14.527 31.337c0.7-0.014 1.402-0.026 2.099-0.103 0.349-0.037 0.699-0.091 1.033-0.208 0.263-0.091 0.539-0.245 0.66-0.534 0.017-0.040 0.032-0.086 0.024-0.131-0.005-0.046-0.029-0.083-0.058-0.114-0.141-0.163-0.361-0.169-0.558-0.166-1.933 0.032-3.865 0.074-5.793 0.257-0.346 0.034-0.738 0.1-0.938 0.434-0.436 0.728 1.065 0.568 1.336 0.577 0.734 0.017 1.465 0.003 2.196-0.011z"></path>
<path fill="#666" style="fill: var(--color33, #666)" opacity="0.7" d="M9.604 20.599c0.522 3.003 2.006 5.686 2.525 8.691 0.034 0.197 0.066 0.4 0.158 0.565 0.095 0.165 0.271 0.288 0.434 0.237 0.297-0.094 0.295-0.58 0.253-0.936-0.122-1.065-0.017-2.146 0.090-3.214 0.166-1.664 0.332-3.328 0.497-4.995 0.124-0.151 0.348-0.117 0.485 0.020 0.137 0.134 0.202 0.34 0.256 0.54 0.241 0.888 0.341 1.815 0.444 2.737 0.202 1.847 0.402 3.697 0.427 5.557 0.144 0.011 0.288 0.023 0.431 0.032 0.59-1.844 1.033-3.745 1.45-5.649 0.212-0.965 0.417-1.932 0.551-2.917 0.175-1.293 0.222-2.606 0.258-3.913 0.007-0.266 0.010-0.548-0.119-0.768-0.115-0.194-0.312-0.294-0.502-0.38-1.631-0.734-3.383-1.005-5.123-1.165-0.49-0.046-0.985-0.080-1.467 0.023-0.38 0.080-0.795 0.257-1.080 0.577-0.322 0.362-0.217 0.936-0.219 1.436-0.005 1.179 0.049 2.363 0.251 3.522z"></path>
<path fill="#fcee9f" style="fill: var(--color34, #fcee9f)" opacity="0.7" d="M8.573 13.934c-0.161 0.571-0.288 1.247 0.010 1.738 0.141 0.231 0.356 0.382 0.573 0.511 1.219 0.719 2.613 0.888 3.97 1.042 1.223 0.14 2.452 0.28 3.68 0.203 0.585-0.037 1.201-0.137 1.657-0.568 0.434-0.408 0.661-1.062 0.721-1.71s-0.022-1.302-0.107-1.947c-0.093-0.708-0.185-1.416-0.344-2.107-0.275-1.202-0.756-2.338-1.399-3.325-0.488-0.745-1.080-1.419-1.806-1.818-0.687-0.38-1.73-0.554-2.444-0.146-0.714 0.405-1.37 1.573-1.847 2.292-1.162 1.75-2.072 3.731-2.664 5.834z"></path>
<path fill="#f2d6c9" style="fill: var(--color35, #f2d6c9)" opacity="0.7" d="M15.381 3.876c-0.007 0.151-0.014 0.305-0.051 0.454-0.090 0.351-0.363 0.668-0.733 0.836s-0.831 0.188-1.211 0.040c-0.378-0.146-0.656-0.431-0.877-0.731-0.463-0.628-0.734-1.376-0.67-2.118 0.010-0.111 0.029-0.225 0.11-0.314 0.115-0.126 0.317-0.154 0.5-0.171 0.602-0.063 2.272-0.508 2.766-0.168 0.49 0.337 0.193 1.701 0.168 2.172z"></path>
<path fill="#d1b380" style="fill: var(--color36, #d1b380)" opacity="0.7" d="M10.516 1.744c0.088 0.437 0.563 0.768 1.072 0.845 0.509 0.074 1.033-0.068 1.477-0.297 0.473-0.245 0.916-0.602 1.467-0.622 0.102-0.003 0.207 0.006 0.295 0.046 0.098 0.046 0.168 0.128 0.224 0.211 0.314 0.457 0.361 1.010 0.4 1.538 0.168-0.46 0.302-0.928 0.397-1.404 0.105-0.519 0.134-1.127-0.305-1.49-0.334-0.277-0.848-0.325-1.311-0.277-0.651 0.069-1.277 0.303-1.782 0.662-0.2 0.143-0.383 0.305-0.602 0.431-0.217 0.123-0.48 0.208-0.738 0.168-0.283-0.046-0.339-0.248-0.536-0.363-0.080 0.16-0.093 0.374-0.059 0.551z"></path>
<path fill="#f2d6c9" style="fill: var(--color35, #f2d6c9)" opacity="0.7" d="M16.387 9.185c-0.18-0.388-0.446-0.705-0.67-1.059s-0.412-0.771-0.392-1.21c0.020-0.44 0.314-0.885 0.69-0.882 0.156 0 0.302 0.074 0.441 0.157 0.451 0.265 0.863 0.628 1.202 1.068 0.132 0.171 0.253 0.354 0.339 0.562 0.124 0.305 0.158 0.651 0.19 0.988 0.054 0.594 0.098 1.196-0.012 1.778-0.158 0.831-0.665 1.573-1.336 1.907-0.144 0.071-0.363 0.194-0.5 0.103-0.146-0.097-0.173-0.32-0.141-0.488 0.083-0.462 0.353-0.845 0.414-1.336 0.061-0.54 0-1.105-0.224-1.587z"></path>
<path fill="#f2d6c9" style="fill: var(--color35, #f2d6c9)" opacity="0.7" d="M15.605 12.433c-0.029 0.023-0.059 0.049-0.081 0.080-0.054 0.080-0.056 0.188-0.056 0.291 0 0.163 0.015 0.354 0.134 0.437 0.054 0.037 0.12 0.043 0.183 0.046 0.066 0.003 0.132 0.009 0.197 0.011 0.071 0.006 0.146 0.009 0.205-0.037 0.061-0.046 0.088-0.131 0.112-0.211 0.058-0.197 0.117-0.391 0.175-0.588 0.010-0.034 0.019-0.071 0.007-0.103-0.007-0.020-0.024-0.034-0.039-0.046-0.139-0.126-0.205-0.188-0.382-0.143-0.149 0.037-0.348 0.137-0.456 0.263z"></path>
<path fill="#000" style="fill: var(--color1, #000)" opacity="0.7" d="M16.919 29.967c-0.088-0.094-0.217-0.109-0.334-0.117-0.175-0.014-0.351-0.031-0.526-0.046-0.076-0.006-0.156-0.014-0.217-0.066-0.024-0.020-0.044-0.049-0.061-0.077-0.056 0-0.11-0.003-0.166-0.003-0.202-0.006-0.405 0.083-0.602 0.154 0.041 0.203 0.080 0.403 0.122 0.605 0.007 0.040 0.017 0.083 0.044 0.108s0.066 0.029 0.102 0.029c0.585 0.017 1.172-0.009 1.755-0.074 0.005-0.186 0-0.394-0.117-0.514z"></path>
<path fill="#000" style="fill: var(--color1, #000)" opacity="0.7" d="M12.882 29.785c0.010 0.271 0.017 0.557-0.090 0.799-0.076 0.171-0.202 0.3-0.327 0.428-0.066 0.066-0.129 0.131-0.195 0.2-0.017 0.017-0.037 0.037-0.059 0.046-0.024 0.009-0.051 0.009-0.076 0.006-0.112-0.006-0.222 0.006-0.334-0.003-0.11-0.011-0.224-0.049-0.302-0.143s-0.102-0.254-0.034-0.357c0.044-0.066 0.117-0.097 0.18-0.134 0.193-0.103 0.358-0.271 0.47-0.48 0.071-0.131 0.136-0.268 0.266-0.323 0.049-0.020 0.5-0.080 0.5-0.040z"></path>
<path fill="#7f7f7f" style="fill: var(--color37, #7f7f7f)" opacity="0.7" d="M16.819 11.865c-0.027-0.066-0.056-0.131-0.102-0.177-0.061-0.057-0.144-0.060-0.22-0.063-1.357-0.051-2.717-0.106-4.075-0.157-0.11-0.006-0.21 0.077-0.256 0.203-0.219 0.605-0.48 1.113-0.646 1.744-0.022 0.086 0.029 0.171 0.102 0.174 1.833 0.029 3.761 0.26 5.591 0.080 0.124-0.011 0.2-0.177 0.146-0.317-0.183-0.485-0.361-1.053-0.541-1.487z"></path>
<path fill="#666" style="fill: var(--color33, #666)" opacity="0.7" d="M16.782 11.725c-0.027-0.066-0.054-0.131-0.102-0.177-0.061-0.057-0.141-0.060-0.215-0.063-1.333-0.051-2.666-0.106-3.997-0.157-0.107-0.006-0.207 0.077-0.251 0.203-0.217 0.605-0.473 1.113-0.634 1.744-0.022 0.086 0.029 0.171 0.1 0.174 1.799 0.029 3.69 0.26 5.486 0.080 0.122-0.011 0.195-0.177 0.144-0.317-0.178-0.485-0.353-1.053-0.531-1.487z"></path>
<path fill="#f0f0f0" style="fill: var(--color38, #f0f0f0)" opacity="0.7" d="M16.571 11.854c-0.024-0.046-0.049-0.094-0.093-0.126-0.053-0.040-0.127-0.043-0.195-0.046-1.201-0.037-2.403-0.077-3.605-0.114-0.097-0.003-0.185 0.054-0.227 0.146-0.195 0.434-0.427 0.799-0.57 1.253-0.020 0.060 0.027 0.123 0.090 0.126 1.623 0.020 3.329 0.188 4.948 0.057 0.11-0.009 0.178-0.128 0.129-0.228-0.158-0.348-0.317-0.756-0.478-1.067z"></path>
<path fill="#e0c74e" style="fill: var(--color39, #e0c74e)" opacity="0.7" d="M14.988 11.979c-0.007 0.011-0.005 0.026-0.002 0.040 0.049 0.328 0.097 0.662 0.205 0.97 0.322 0 0.643 0 0.965 0.003 0.102 0 0.205 0 0.302-0.023-0.107-0.325-0.217-0.651-0.324-0.976-0.368 0.011-0.736 0.003-1.102-0.026-0.017-0.003-0.034-0.003-0.044 0.011z"></path>
<path fill="#cacaca" style="fill: var(--color40, #cacaca)" opacity="0.7" d="M14.584 11.945c-0.592 0.037-1.18 0.026-1.772 0-0.046-0.003-0.046 0.080 0 0.086 0.59 0.051 1.182 0.043 1.772 0.009 0.051-0.003 0.054-0.097 0-0.094z"></path>
<path fill="#cacaca" style="fill: var(--color40, #cacaca)" opacity="0.7" d="M14.644 12.21c-0.58-0.003-1.16 0.017-1.738 0.054-0.044 0.003-0.044 0.083 0 0.080 0.58-0.031 1.158-0.040 1.738-0.037 0.054 0 0.054-0.097 0-0.097z"></path>
<path fill="#cacaca" style="fill: var(--color40, #cacaca)" opacity="0.7" d="M14.644 12.544c-0.609-0.031-1.221-0.037-1.83-0.034-0.046 0-0.046 0.083 0 0.083 0.612 0.011 1.221 0.034 1.83 0.051 0.054 0 0.054-0.097 0-0.1z"></path>
<path fill="#cacaca" style="fill: var(--color40, #cacaca)" opacity="0.7" d="M14.481 12.798c-0.541-0.006-1.085 0.006-1.628 0.011-0.046 0-0.046 0.083 0 0.083 0.541 0.006 1.085 0.017 1.628 0.011 0.058 0 0.058-0.103 0-0.106z"></path>
<path fill="#f2d6c9" style="fill: var(--color35, #f2d6c9)" opacity="0.7" d="M12.238 12.447c0.1 0.011 0.202 0.023 0.302 0 0.083-0.017 0.163-0.057 0.231-0.114 0.107-0.088 0.188-0.231 0.195-0.385 0.005-0.154-0.078-0.314-0.205-0.357-0.059-0.020-0.119-0.014-0.18 0-0.268 0.054-0.512 0.234-0.782 0.257-0.1 0.009-0.212 0-0.283 0.080-0.039 0.046-0.059 0.108-0.068 0.174-0.010 0.068-0.012 0.146 0.017 0.205 0.056 0.117 0.219 0.080 0.317 0.089 0.151 0.017 0.302 0.034 0.456 0.051z"></path>
<path fill="#f2d6c9" style="fill: var(--color35, #f2d6c9)" opacity="0.7" d="M10.46 6.967c-0.449 0.394-0.814 0.905-1.163 1.419-0.322 0.477-0.641 0.976-0.799 1.556s-0.132 1.262 0.19 1.738c0.327 0.482 0.873 0.659 1.389 0.776 0.205 0.046 0.414 0.088 0.624 0.071 0.232-0.017 0.604 0.034 0.826-0.051 0.119-0.046 0.12-0.18 0.21-0.283s0.11-0.325 0.046-0.451c-0.375-0.029-0.751-0.074-1.123-0.137-0.31-0.051-0.646-0.134-0.846-0.414-0.217-0.303-0.202-0.768-0.041-1.116s0.441-0.597 0.731-0.799c0.29-0.203 0.6-0.371 0.868-0.611 0.458-0.411 2.388-2.044 1.84-2.734-0.439-0.542-2.374 0.702-2.752 1.036z"></path>
<path fill="#fcee9f" style="fill: var(--color34, #fcee9f)" opacity="0.7" d="M18.252 8.077c0.022-0.163-0.073-0.314-0.161-0.442-0.193-0.28-0.385-0.562-0.58-0.842-0.093-0.134-0.185-0.271-0.3-0.382-0.227-0.223-0.519-0.328-0.802-0.425-0.324-0.111-0.702-0.205-0.975 0.026-0.188 0.16-0.273 0.442-0.273 0.714s0.076 0.531 0.158 0.785c0.122 0.377 0.254 0.768 0.427 1.116 0.144 0.294 0.305 0.271 0.548 0.143 0.636-0.334 1.265-0.594 1.957-0.691z"></path>
<path fill="#fcee9f" style="fill: var(--color34, #fcee9f)" opacity="0.7" d="M10.797 7.743c0.21 0.391 0.468 0.742 0.726 1.090 0.019 0.029 0.044 0.057 0.076 0.057 0.024 0 0.046-0.017 0.063-0.034 0.202-0.183 0.339-0.442 0.514-0.659 0.348-0.428 0.851-0.679 1.126-1.173 0.156-0.283 0.224-0.631 0.19-0.965-0.012-0.117-0.039-0.237-0.102-0.325-0.090-0.128-0.239-0.18-0.38-0.18-0.202 0-0.397 0.083-0.585 0.168-0.534 0.243-1.060 0.511-1.577 0.802-0.127 0.071-0.256 0.146-0.383 0.22-0.166 0.1-0.207 0.097-0.1 0.268 0.154 0.237 0.295 0.474 0.431 0.731z"></path>
<path fill="#000" style="fill: var(--color1, #000)" opacity="0.7" d="M26.852 31.842c0.468 0 0.946-0.006 1.392-0.174 0.034-0.123-0.029-0.263-0.122-0.337s-0.205-0.097-0.317-0.114c-0.375-0.057-0.756-0.071-1.136-0.086-1.475-0.051-2.952-0.103-4.428-0.114-0.185-0.003-0.958 0.057-0.738 0.497 0.146 0.294 0.831 0.191 1.070 0.205 0.909 0.051 1.818 0.086 2.73 0.106 0.517 0.011 1.033 0.017 1.55 0.017z"></path>
<path fill="#000" style="fill: var(--color1, #000)" opacity="0.7" d="M26.852 31.843c0.468 0 0.946-0.006 1.392-0.174 0.034-0.123-0.029-0.263-0.122-0.337s-0.205-0.097-0.317-0.114c-0.375-0.057-0.756-0.071-1.136-0.086-1.475-0.051-2.952-0.103-4.428-0.114-0.185-0.003-0.958 0.057-0.738 0.497 0.146 0.294 0.831 0.191 1.070 0.205 0.909 0.051 1.818 0.086 2.73 0.106 0.517 0.011 1.033 0.017 1.55 0.017z"></path>
<path fill="#97a8b2" style="fill: var(--color41, #97a8b2)" opacity="0.7" d="M28.054 14.36c0 0 0.083-1.53-2.284-1.421-0.046 0.003-0.090 0.003-0.134 0.006-0.017 0.011-0.032 0.020-0.049 0.031-0.034 0.103-0.063 0.206-0.085 0.311-0.007 0.029-0.012 0.074-0.019 0.117 0.002-0.034 0.007-0.077 0.012-0.131-0.007 0.068-0.019 0.137-0.027 0.203-0.073 0.611-0.056 1.227-0.102 1.838-0.039 0.522-0.129 1.045-0.227 1.561 0.093-0.006 0.197-0.003 0.256 0.023 0.119 0.051 0.176 12.725-0.029 13.512l0.941 0.012c0.003 0.003 1.825-13.013 1.748-16.061z"></path>
<path fill="#eaddd0" style="fill: var(--color10, #eaddd0)" opacity="0.7" d="M25.471 7.244c-0.275-0.046-0.568 0.123-0.702 0.408-0.085 0.183-0.107 0.397-0.129 0.605-0.078 0.739-0.178 1.476-0.297 2.209-0.081 0.497-0.090 1.484-0.69 1.533-0.224 0.020-0.456-0.18-0.678-0.22-0.363-0.069-0.704-0.091-1.055-0.24-0.283-0.12-0.47-0.297-0.682-0.537-0.127-0.146-0.305-0.434-0.475-0.488-0.122-0.040-0.275 0.126-0.2 0.243-0.151-0.106-0.368 0.063-0.375 0.271-0.015 0.397 0.653 0.622 0.89 0.793 0.365 0.268 0.726 0.551 1.123 0.751 0.626 0.314 1.304 0.491 1.984 0.505 0.119 0.003 0.246-0.003 0.349-0.074 0.219-0.157 0.336-0.525 0.505-0.754 0.153-0.211 0.236-0.351 0.307-0.625 0.195-0.754 0.363-1.527 0.49-2.301 0.119-0.651 0.531-1.927-0.363-2.081z"></path>
<path fill="#97a8b2" style="fill: var(--color41, #97a8b2)" opacity="0.7" d="M22.712 18.909c0.015 0.488 0.044 0.976 0.071 1.464 0.041 0.731 0.083 1.462 0.122 2.192 0.012 0.234 0.032 0.482 0.153 0.668 0.012 0.020 0.027 0.037 0.046 0.046 0.066 0.029 0.117-0.069 0.139-0.146 0.261-0.919 0.646-1.787 1.141-2.563 0.127-0.197 0.263-0.394 0.446-0.517 0.137-0.091 0.292-0.14 0.448-0.186 0.307-0.091 0.617-0.183 0.924-0.274 0.18-0.054 0.368-0.111 0.509-0.251 0.112-0.111 0.185-0.265 0.256-0.417 0.361-0.762 0.724-1.533 0.907-2.378 0.134-0.617 0.168-1.256 0.158-1.89 0-0.063-0.002-0.128-0.022-0.186-0.027-0.080-0.085-0.143-0.146-0.191-0.232-0.18-0.526-0.203-0.804-0.217-1.055-0.054-2.135-0.080-3.168 0.208-0.319 0.088-0.86 0.18-1.016 0.577-0.19 0.485-0.132 1.239-0.154 1.764-0.032 0.762-0.037 1.53-0.010 2.295z"></path>
<path fill="#97a8b2" style="fill: var(--color41, #97a8b2)" opacity="0.7" d="M24.87 18.062c-0.59-0.094-1.182-0.186-1.772-0.28-0.029-0.088 0.117 0.003 0.107 0.094-0.309 2.891-0.19 5.829 0.056 8.737 0.107 1.253 0.115 2.512 0.002 3.762 0.244 0.032 0.663 0.074 0.904 0.106 0.449-3.896 0.719-7.804 1.167-11.7 0.022-0.197 0.037-0.425-0.093-0.568-0.095-0.106-0.239-0.131-0.373-0.151z"></path>
<path fill="#eaddd0" style="fill: var(--color10, #eaddd0)" opacity="0.7" d="M24.102 5.303c0.353-0.014 0.714-0.294 1.094-0.385-0.1-0.36 0.020-0.748 0.051-1.125 0.044-0.511-0.078-1.019-0.205-1.507-0.102-0.394-0.217-0.802-0.458-1.105-0.049-0.060-0.105-0.117-0.17-0.137-0.059-0.017-0.119-0.006-0.178 0.003-0.417 0.074-1.574 0.131-1.684 0.679-0.151 0.751 0.29 1.747 0.539 2.412 0.117 0.314 0.236 0.634 0.441 0.876 0.185 0.225 0.378 0.297 0.57 0.288z"></path>
<path fill="#e8e8e8" style="fill: var(--color42, #e8e8e8)" opacity="0.7" d="M28.143 16.047l0.007-0.009c0.005-0.006 0.007-0.011 0.012-0.014 0.010-0.017 0.020-0.031 0.029-0.049 0.124-0.223 0.232-0.457 0.341-0.688 0.205-2.7-0.056-5.426-0.78-8.081-0.227-0.833-0.451-1.753-1.302-2.323-0.044-0.029-0.090-0.057-0.144-0.069-0.071-0.014-0.144 0.009-0.212 0.029-0.458 0.137-0.916 0.274-1.377 0.414-0.090 0.029-0.183 0.054-0.275 0.080-0.098 0.026-0.195 0.048-0.295 0.066-0.171 0.029-0.841 0.217-0.865 0.405-0.058 0.482-0.112 0.965-0.158 1.45-0.117 1.196-0.205 2.389-0.202 3.588 0.002 1.196-0.090 2.389-0.258 3.574-0.012 0.091-0.073 0.574-0.146 1.068 0.005 0.009 0.007 0.017 0.012 0.026 0.059 0.131 0.122 0.257 0.192 0.38 0.007 0.011 0.020 0.031 0.032 0.054 0.007 0.009 0.012 0.017 0.017 0.023 0.078 0.106 0.166 0.205 0.256 0.3 0.007 0.009 0.019 0.020 0.034 0.037-0.124-0.137 0.007 0.003 0.044 0.031 0.095 0.074 0.192 0.143 0.292 0.203 0.024 0.014 0.127 0.066 0.136 0.071s0.022 0.009 0.032 0.014c1.438-0.071 2.874-0.188 4.299-0.357 0.088-0.083 0.183-0.166 0.278-0.223z"></path>
<path fill="#97a8b2" style="fill: var(--color41, #97a8b2)" opacity="0.7" d="M23.327 30.267c-0.015 0-0.029 0-0.044 0.003-0.020 0.006-0.032 0.020-0.044 0.031-0.051 0.060-0.090 0.126-0.112 0.197-0.019 0.066-0.024 0.137-0.066 0.194-0.046 0.066-0.132 0.105-0.217 0.137-0.217 0.083-0.451 0.14-0.687 0.166-0.054 0.006-0.107 0.011-0.156 0.029-0.137 0.054-0.171 0.194-0.188 0.317-0.005 0.034-0.007 0.077 0.029 0.097 0.020 0.011 0.044 0.011 0.068 0.011 0.682-0.003 0.972-0.003 1.652-0.003 0.166 0 0.339-0.006 0.5-0.040 0.022-0.006 0.044-0.009 0.061-0.023s0.024-0.034 0.032-0.054c0.090-0.274 0.1-0.574 0.081-0.856-0.007-0.088-0.020-0.16-0.139-0.18-0.171-0.029 0.017-0.006-0.156-0.011-0.202-0.003-0.409-0.009-0.614-0.014z"></path>
<path fill="#333" style="fill: var(--color4, #333)" opacity="0.7" d="M26.273 2.483c0.002-0.245-0.119-0.468-0.222-0.682-0.171-0.357-0.307-0.742-0.517-1.070s-0.519-0.602-0.87-0.614c-0.146-0.006-0.29 0.034-0.431 0.074-0.604 0.171-1.214 0.345-1.765 0.682-0.068 0.043-0.139 0.089-0.183 0.166-0.039 0.066-0.051 0.148-0.063 0.228-0.017 0.111-0.034 0.225-0.051 0.337-0.010 0.071-0.022 0.143-0.010 0.211 0.037 0.214 0.251 0.308 0.439 0.323 0.185 0.011 0.368-0.017 0.551-0.049 0.175-0.029 0.59-0.2 0.731-0.014 0.071 0.091 0.049 0.245 0.097 0.354 0.059 0.134 0.168 0.214 0.241 0.334 0.076 0.111 0.129 0.265 0.073 0.391 0.102-0.071 0.229-0.094 0.346-0.060 0.041 0.011 0.083 0.031 0.11 0.068 0.051 0.074 0.029 0.188-0.027 0.257s-0.137 0.1-0.215 0.128c0.332 0.374 0.453 0.982 0.3 1.493 0.254-0.031 0.466-0.237 0.641-0.454 0.158-0.197 0.305-0.411 0.405-0.654 0.046-0.114 0.083-0.231 0.119-0.348 0.071-0.234 0.144-0.471 0.214-0.705 0.044-0.131 0.083-0.263 0.085-0.397z"></path>
<path fill="#97a8b2" style="fill: var(--color41, #97a8b2)" opacity="0.7" d="M25.444 30.293c-0.015 0-0.029 0-0.044 0.003-0.020 0.006-0.032 0.020-0.044 0.031-0.051 0.060-0.090 0.126-0.112 0.197-0.020 0.066-0.024 0.137-0.066 0.194-0.046 0.066-0.132 0.106-0.217 0.137-0.217 0.083-0.451 0.14-0.687 0.166-0.054 0.006-0.107 0.011-0.156 0.029-0.137 0.054-0.171 0.194-0.188 0.317-0.005 0.034-0.007 0.077 0.029 0.097 0.020 0.011 0.044 0.011 0.068 0.011 0.682-0.003 0.972-0.003 1.652-0.003 0.166 0 0.339-0.006 0.5-0.040 0.022-0.006 0.044-0.009 0.061-0.023s0.024-0.034 0.032-0.054c0.090-0.274 0.1-0.574 0.080-0.856-0.007-0.088-0.019-0.16-0.139-0.18-0.17-0.029 0.017-0.006-0.156-0.011-0.205-0.003-0.409-0.009-0.614-0.014z"></path>
<path fill="#c7b299" style="fill: var(--color43, #c7b299)" opacity="0.7" d="M20.7 11.26c-0.071 0.166-0.151 0.328-0.239 0.482-0.012 0.023-0.027 0.046-0.049 0.051-0.022 0.009-0.046-0.006-0.066-0.017-0.236-0.137-0.47-0.274-0.707-0.408 0.056-0.651 0.024-1.439 0.185-2.058 0.022-0.088 1.182 0.148 1.26 0.397 0.076 0.245-0.139 0.836-0.21 1.073-0.049 0.163-0.107 0.323-0.176 0.48z"></path>
<path fill="#534741" style="fill: var(--color44, #534741)" opacity="0.7" d="M19.748 9.379c0.034 0.009 0.068 0.011 0.102 0.014 0.073 0.009 0.144 0.026 0.214 0.043 0.349 0.094 0.687 0.231 1.021 0.38 0.022 0.009 0.044 0.020 0.068 0.017 0.036-0.006 0.063-0.046 0.073-0.086 0.010-0.043 0.005-0.086 0-0.128 0-0.009-0.002-0.017-0.007-0.023s-0.010-0.009-0.017-0.011c-0.017-0.009-0.034-0.017-0.051-0.023-0.078-0.034-0.158-0.063-0.239-0.088-0.349-0.114-0.7-0.22-1.050-0.317-0.017-0.006-0.039-0.009-0.054 0.003-0.027 0.023-0.041 0.080-0.049 0.114-0.012 0.029-0.051 0.097-0.012 0.106z"></path>
<path fill="#5b8c87" style="fill: var(--color45, #5b8c87)" opacity="0.7" d="M19.731 10.543l1.043 0.531 0.21-0.645-1.253-0.597v0.711z"></path>
<path fill="#333" style="fill: var(--color4, #333)" opacity="0.7" d="M23.645 3.228c-0.005-0.026-0.032-0.051-0.058-0.049-0.261 0.031-0.517 0.1-0.768 0.174-0.088 0.026-0.049 0.177 0.037 0.148 0.227-0.068 0.458-0.12 0.685-0.18 0.029 0.137 0.054 0.277 0.068 0.42 0.007 0.063 0.010 0.126 0.010 0.188 0.002 0.114-0.144 0.123-0.207 0.137-0.078 0.017-0.156 0.023-0.234 0.026-0.115 0.006-0.122-0.054-0.166-0.143-0.066-0.134-0.117-0.274-0.163-0.417-0.015-0.046-0.076-0.026-0.066 0.020 0.051 0.205 0.117 0.414 0.214 0.599 0.071 0.134 0.334 0.051 0.441 0.034 0.119-0.020 0.273-0.051 0.288-0.211 0.027-0.243-0.027-0.511-0.080-0.748z"></path>
<path fill="#333" style="fill: var(--color4, #333)" opacity="0.7" d="M24.268 2.959c-0.224 0.1-0.439 0.251-0.653 0.377-0.041 0.023-0.012 0.103 0.032 0.086 0.227-0.088 0.47-0.163 0.687-0.28 0.088-0.046 0.024-0.223-0.066-0.183z"></path>
<path fill="#eaddd0" style="fill: var(--color10, #eaddd0)" opacity="0.7" d="M26.209 7.264c-0.088-0.394-0.453-1.216-0.838-0.625-0.117 0.18-0.146 0.42-0.168 0.645-0.188 1.818-0.378 3.634-0.566 5.452-0.098 0.948-0.205 1.927-0.624 2.743-0.068 0.131-0.144 0.26-0.175 0.408-0.034 0.148-0.015 0.323 0.085 0.422-0.136 0.2-0.024 0.634 0.227 0.611 0.054-0.006 0.102-0.031 0.146-0.069 0.251-0.203 0.188-0.579 0.246-0.893 0.078-0.428 0.19-0.845 0.302-1.259 0.429-1.601 0.968-3.163 1.255-4.798 0.151-0.873 0.302-1.778 0.11-2.637z"></path>
<path fill="#6087a2" style="fill: var(--color46, #6087a2)" opacity="0.7" d="M25.234 6.282c-0.098 0.026-0.197 0.054-0.271 0.131-0.095 0.1-0.127 0.257-0.153 0.402-0.292 1.644-0.514 3.305-0.665 4.978 0.483 0.143 0.968 0.285 1.45 0.428 0.614-1.564 0.889-3.308 0.792-5.024-0.017-0.305-0.061-0.645-0.263-0.839-0.244-0.226-0.59-0.157-0.89-0.077z"></path>
<path fill="#000" style="fill: var(--color1, #000)" opacity="0.7" d="M5.264 31.6c0.49-0.017 0.98-0.037 1.467-0.080 0.236-0.020 0.48-0.049 0.695-0.169 0.117-0.066 0.236-0.211 0.183-0.348-0.044-0.114-0.176-0.131-0.285-0.131-1.767-0.003-3.536-0.006-5.301 0.131-0.319 0.026-0.682 0.083-0.865 0.391-0.224 0.382 0.446 0.274 0.585 0.277 0.388 0.006 0.775 0.006 1.16 0 0.79-0.011 1.574-0.040 2.362-0.071z"></path>
<path fill="#000" style="fill: var(--color1, #000)" opacity="0.7" d="M5.264 31.6c0.49-0.017 0.98-0.037 1.467-0.080 0.236-0.020 0.48-0.049 0.695-0.168 0.117-0.066 0.236-0.211 0.183-0.348-0.044-0.114-0.176-0.131-0.285-0.131-1.767-0.003-3.536-0.006-5.301 0.131-0.319 0.026-0.682 0.083-0.865 0.391-0.224 0.382 0.446 0.274 0.585 0.277 0.388 0.006 0.775 0.006 1.16 0 0.79-0.011 1.574-0.040 2.362-0.071z"></path>
<path fill="#fff" style="fill: var(--color24, #fff)" opacity="0.7" d="M8.844 11.029c0.046 0.048 0.093 0.094 0.151 0.114 0.080 0.026 0.166-0.006 0.244-0.037 0.054-0.020 0.105-0.043 0.158-0.063 0.020-0.009 0.041-0.017 0.054-0.040s0.010-0.049 0.007-0.077c-0.051-0.577-0.144-1.148-0.28-1.704-0.217 0.117-0.431 0.234-0.648 0.351-0.117 0.063-0.509 0.188-0.517 0.354-0.007 0.168 0.27 0.442 0.361 0.557 0.149 0.191 0.305 0.374 0.47 0.545z"></path>
<path fill="#333" style="fill: var(--color4, #333)" opacity="0.7" d="M8.942 9.116c0.063-0.031 0.132-0.063 0.202-0.051 0.068 0.011 0.136 0.083 0.127 0.163-0.007 0.057-0.266 0.194-0.312 0.226-0.112 0.077-0.227 0.148-0.344 0.217s-0.236 0.131-0.356 0.191c-0.066 0.034-0.21 0.14-0.288 0.108-0.285-0.117 0.212-0.437 0.297-0.494 0.217-0.137 0.444-0.248 0.673-0.36z"></path>
<path fill="#998675" style="fill: var(--color47, #998675)" opacity="0.7" d="M6.428 30.615c-0.105 0.009-0.212 0.017-0.314-0.014s-0.2-0.114-0.231-0.231c-0.027-0.1-0.015-0.231-0.088-0.288-0.017-0.014-0.037-0.020-0.059-0.023-0.010-2.092 0.034-3.3 0.022-5.435 0.090-0.711 0.037-1.37 0.022-2.058-0.044-2.172-0.085-4.344-0.129-6.516-0.005-0.288-0.015-0.588-0.136-0.856-0.197-0.434-0.636-0.679-1.048-0.868-1.224-0.559-2.608-1.359-2.944 0.44-0.090 0.477-0.163 0.956-0.224 1.441-0.044 0.345-0.078 0.705 0.029 1.047 0.183 0.582 0.522 2.012 0.95 2.435 1.119 1.102 1.606 2.346 1.974 3.808-0.115 0.488 0.019 1.179 0.071 1.556 0.239 1.807 0.731 3.488 0.972 5.295-0.102 0.223-0.146 0.482-0.117 0.734 0.005 0.051 0.015 0.103 0.044 0.14 0.041 0.054 0.11 0.066 0.171 0.071 0.173 0.014 0.346 0.020 0.519 0.017 0.134-0.003 0.278-0.017 0.38-0.12 0.134-0.131 0.141-0.365 0.136-0.574z"></path>
<path fill="#998675" style="fill: var(--color47, #998675)" opacity="0.7" d="M4.97 18.259c-0.344-0.888-1.601-1.484-2.788-0.471-0.709 0.605-0.171 1.279-0.015 1.878 0.19 0.728 0.317 1.479 0.375 2.241 0.115 1.47-0.015 2.994-0.39 4.521-0.249 1.016-0.253 2.129-0.427 3.143-0.095 0.568-0.397 1.322-0.327 1.887 0.268 0.003 0.536 0.006 0.802 0.009 0.236 0.003 0.487 0 0.685-0.151s0.295-0.511 0.129-0.708c-0.163 0.063-0.336 0.126-0.505 0.080-0.739-0.205 0.227-2.161 0.368-2.592 0.602-1.838 1.204-3.676 1.64-5.515 0.322-1.345 0.924-3.108 0.451-4.322z"></path>
<path fill="#acb18f" style="fill: var(--color48, #acb18f)" opacity="0.7" d="M5.195 8.46c0.292 0.842 0.585 1.681 0.877 2.523 0.080 0.231 0.161 0.477 0.122 0.719-0.068 0.431-0.47 0.662-0.834 0.759-0.719-1.196-1.477-2.361-2.269-3.491-0.451-0.642-1.153-2.127-0.117-2.575 1.175-0.505 1.872 1.059 2.22 2.064z"></path>
<path fill="#acb18f" style="fill: var(--color48, #acb18f)" opacity="0.7" d="M7.831 7.181c0.095-0.166 0.232-0.091 0.351 0.051-0.334 1.416-0.631 2.843-0.892 4.279-0.080 0.445-0.183 0.936-0.507 1.193-0.136 0.108-0.302 0.163-0.466 0.194-0.295 0.060-0.651 0.029-0.816-0.263-0.236-0.417 0.056-0.822 0.29-1.113 0.275-0.34 0.392-0.559 0.563-1.022 0.392-1.068 0.924-2.349 1.477-3.32z"></path>
<path fill="#f2d6c9" style="fill: var(--color35, #f2d6c9)" opacity="0.7" d="M8.389 7.115c0.027-0.040 0.041-0.088 0.058-0.137 0.041-0.123 0.083-0.248 0.124-0.371 0.020-0.057 0.039-0.114 0.041-0.174s-0.012-0.126-0.051-0.166c-0.037-0.037-0.088-0.046-0.136-0.034s-0.088 0.043-0.127 0.077c-0.085 0.077-0.156 0.177-0.205 0.291-0.039 0.091-0.063 0.191-0.124 0.263-0.027 0.031-0.058 0.057-0.083 0.094-0.037 0.054-0.044 0.131-0.022 0.194 0.080 0.208 0.431 0.106 0.524-0.037z"></path>
<path fill="#ebefeb" style="fill: var(--color49, #ebefeb)" opacity="0.7" d="M6.486 18.556c-0.122-3.054-0.392-6.1-0.746-9.134-0.129-1.113-0.285-2.438-1.28-2.957-0.921-0.482-2.057-0.605-2.657 0.48-0.336 0.608-0.412 1.344-0.483 2.058-0.424 4.364-0.848 8.729-1.272 13.093 0.466 0.031 6.037 0.999 6.061 0.591 0-0.006 0-0.011 0-0.014 0.037-0.003 0.071-0.011 0.102-0.028 0.124-0.066 0.161-0.24 0.183-0.391 0.163-1.222 0.139-2.463 0.090-3.696z"></path>
<path fill="#f2d6c9" style="fill: var(--color35, #f2d6c9)" opacity="0.7" d="M8.202 10.552c0.012-0.031 0.022-0.066 0.039-0.094 0.037-0.060 0.1-0.083 0.163-0.091 0.061-0.009 0.124-0.003 0.185-0.014 0.19-0.040 0.346-0.26 0.536-0.226 0.058 0.011 0.112 0.046 0.161 0.086 0.063 0.054 0.122 0.126 0.139 0.214 0.024 0.14-0.061 0.274-0.139 0.382-0.044 0.060-0.090 0.123-0.149 0.16-0.049 0.031-0.105 0.043-0.161 0.057-0.134 0.037-0.268 0.094-0.375 0.203-0.088 0.088-0.161 0.211-0.271 0.243-0.2 0.057-0.387-0.2-0.409-0.411-0.027-0.217 0.212-0.328 0.28-0.508z"></path>
<path fill="#acb18f" style="fill: var(--color48, #acb18f)" opacity="0.7" d="M8.336 11.303c-0.088-0.206-0.175-0.411-0.261-0.617-0.275 0.054-0.483 0.311-0.68 0.54-0.273 0.317-0.568 0.608-0.882 0.871-0.185 0.154-0.397 0.303-0.622 0.263-0.273-0.048-0.448-0.36-0.59-0.639-0.526-1.053-1.053-2.109-1.579-3.163-0.417-0.834-0.882-0.528-1.182 0.22-0.27 0.682 0.078 1.45 0.346 2.067 0.346 0.796 0.729 1.57 1.148 2.321 0.246 0.44 0.541 0.902 0.98 1.019 0.21 0.057 0.434 0.026 0.641-0.046 0.67-0.223 1.201-0.808 1.696-1.384 0.319-0.374 0.636-0.756 0.946-1.142 0.034-0.043 0.071-0.088 0.078-0.148 0.005-0.051-0.017-0.109-0.039-0.16z"></path>
<path fill="#f2d6c9" style="fill: var(--color35, #f2d6c9)" opacity="0.7" d="M5.349 2.263c-0.11-0.382-0.283-0.853-0.636-0.953-0.383-0.106-0.924 0.188-1.201 0.474-0.344 0.351-0.558 0.848-0.678 1.361-0.132 0.559-0.154 1.182 0.061 1.707s0.704 0.919 1.194 0.833c0.329-0.057 0.609-0.311 0.824-0.608 0.551-0.762 0.707-1.872 0.436-2.814z"></path>
<path fill="#534741" style="fill: var(--color44, #534741)" opacity="0.7" d="M3.704 3.699c-0.11-0.225-0.441-0.214-0.539 0.017-0.073 0.171 0.19 0.868 0.229 1.082 0.102 0.568-0.419 4.444-0.285 5.006-0.782 0.020-1.572-0.080-2.318-0.36-0.076-0.029-0.156-0.063-0.21-0.134-0.068-0.094-0.071-0.231-0.066-0.354 0.059-1.838 1.506-8.095 3.454-8.041 0.239 0.006 0.475 0.069 0.709 0.134 0.154 0.043 0.307 0.091 0.446 0.183 0.283 0.191 0.458 0.554 0.529 0.928 0.073 0.374 0.054 0.762 0.037 1.142-0.005 0.117-1.172-0.003-1.284-0.023-0.127-0.023-0.363-0.14-0.49-0.077-0.146 0.071-0.163 0.343-0.212 0.497z"></path>
<path fill="#fff" style="fill: var(--color24, #fff)" opacity="0.13299999999999998" d="M2.003 15.727c-0.336-0.077-0.643-0.268-0.943-0.46 0.049-0.171 0.098-0.343 0.144-0.514 1.375 0.579 2.937 0.528 4.282-0.14 0.022 0.271 0.041 0.542 0.063 0.813-0.366 0.091-0.738 0.126-1.109 0.163-0.507 0.049-1.011 0.097-1.518 0.148-0.305 0.029-0.617 0.057-0.919-0.011z"></path>
</symbol>
<symbol id="icon-navigation" viewBox="0 0 32 32">
<path fill="none" stroke="#fcfcfb" style="stroke: var(--color50, #fcfcfb)" stroke-linejoin="round" stroke-linecap="butt" stroke-miterlimit="4" stroke-width="1.5238" d="M7.879 4.069c-2.118 2.118-3.307 4.99-3.307 7.984v0.823c0.457 6.187 5.592 11.162 11.291 17.6 5.95-6.72 11.292-11.81 11.292-18.423 0-2.995-1.19-5.867-3.307-7.984s-4.99-3.307-7.984-3.307c-2.994 0-5.866 1.19-7.984 3.307zM18.882 7.545c0.894 0.597 1.59 1.446 2.001 2.439s0.518 2.086 0.308 3.14c-0.21 1.054-0.728 2.022-1.489 2.781s-1.729 1.276-2.783 1.485c-1.054 0.209-2.147 0.1-3.139-0.312s-1.84-1.11-2.436-2.004c-0.596-0.894-0.913-1.945-0.912-3.020 0.002-1.44 0.575-2.819 1.594-3.836s2.399-1.589 3.839-1.589c1.075 0 2.125 0.319 3.019 0.916z"></path>
</symbol>
<symbol id="icon-messages" viewBox="0 0 32 32">
<path fill="none" stroke="#fcfcfb" style="stroke: var(--color50, #fcfcfb)" stroke-linejoin="round" stroke-linecap="round" stroke-miterlimit="4" stroke-width="1.4207" d="M31.259 16.015c0.004-2.368-0.543-4.705-1.597-6.826s-2.588-3.967-4.478-5.393c-1.891-1.426-4.087-2.393-6.416-2.825s-4.726-0.315-7.002 0.339c-2.276 0.654-4.369 1.829-6.113 3.431s-3.092 3.588-3.936 5.801c-0.845 2.213-1.163 4.591-0.93 6.948s1.011 4.627 2.272 6.632l-0.948 5.768 5.768-0.948c2.077 1.308 4.439 2.096 6.885 2.295s4.905-0.195 7.166-1.15"></path>
</symbol>
<symbol id="icon-phone" viewBox="0 0 32 32">
<path fill="none" stroke="#fcfcfb" style="stroke: var(--color50, #fcfcfb)" stroke-linejoin="round" stroke-linecap="butt" stroke-miterlimit="4" stroke-width="1.6" d="M23.935 20.532c-0.406-0.136-0.84-0.164-1.261-0.083s-0.813 0.27-1.139 0.547c-0.424 0.432-1.648 1.64-2.92 2.888-4.557-2.241-8.243-5.929-10.48-10.488 1.24-1.272 2.4-2.488 2.872-2.912 0.277-0.327 0.466-0.719 0.547-1.139s0.053-0.855-0.083-1.261c-0.383-1.666-0.679-3.351-0.888-5.048-0.022-0.216-0.088-0.425-0.194-0.615s-0.249-0.356-0.421-0.488c-0.172-0.132-0.37-0.229-0.58-0.282s-0.43-0.064-0.644-0.030h-6.816c-0.282 0.025-0.545 0.149-0.744 0.35s-0.321 0.465-0.345 0.746c-0.44 6.152 2.992 12.736 3.688 14v0.048l0.096 0.184c2.492 4.321 6.079 7.909 10.4 10.4l0.352 0.2c1.6 0.848 7.96 4.048 13.904 3.608 0.284-0.020 0.552-0.14 0.756-0.339s0.33-0.465 0.355-0.748v-6.808c0.034-0.215 0.024-0.434-0.030-0.644s-0.15-0.408-0.282-0.58c-0.132-0.172-0.298-0.316-0.488-0.421s-0.399-0.172-0.615-0.194c-1.695-0.209-3.377-0.506-5.040-0.888z"></path>
</symbol>
<symbol id="icon-youtube" viewBox="0 0 32 32">
<path fill="#fcfcfb" style="fill: var(--color50, #fcfcfb)" d="M29.384 5.513c-0.866-0.65-3.28-1.513-13.392-1.513-10.837 0-12.445 0.991-12.961 1.315-2.746 1.72-3.006 9.333-3.031 10.876 0.033 2.039 0.349 8.822 3.029 10.5 0.515 0.324 2.114 1.309 12.963 1.309 10.119 0 12.53-0.859 13.392-1.506 2.341-1.755 2.61-7.799 2.616-10.329-0.006-2.034-0.211-8.846-2.616-10.652v0zM28.217 24.804c-0.348 0.261-2.347 1.114-12.225 1.114-9.551 0-11.554-0.773-11.933-1.011-0.964-0.603-1.981-3.803-2.061-8.721 0.079-4.907 1.11-8.49 2.063-9.085 0.38-0.239 2.391-1.018 11.931-1.018 9.87 0 11.875 0.858 12.225 1.12 0.855 0.642 1.772 4.024 1.785 8.968-0.013 5.022-0.935 7.995-1.785 8.632v0zM22.506 15.181l-8.989-5.749c-0.151-0.095-0.325-0.147-0.501-0.149s-0.352 0.044-0.506 0.134c-0.154 0.091-0.283 0.223-0.372 0.382s-0.136 0.341-0.136 0.525v11.5c0 0.276 0.105 0.541 0.293 0.736s0.441 0.305 0.706 0.305c0.182 0 0.36-0.052 0.516-0.149l8.988-5.751c0.3-0.189 0.483-0.527 0.483-0.892s-0.183-0.704-0.483-0.892v0zM14.001 19.979v-7.812l6.056 3.906-6.056 3.907z"></path>
</symbol>
<symbol id="icon-instagram" viewBox="0 0 32 32">
<path fill="#fcfcfb" style="fill: var(--color50, #fcfcfb)" d="M9.404 0.096c1.706-0.078 2.25-0.096 6.596-0.096s4.89 0.019 6.595 0.096c1.705 0.077 2.869 0.349 3.887 0.743 1.066 0.403 2.033 1.033 2.833 1.847 0.815 0.799 1.443 1.765 1.844 2.832 0.396 1.018 0.666 2.182 0.745 3.884 0.078 1.709 0.096 2.253 0.096 6.598 0 4.346-0.019 4.89-0.096 6.596-0.077 1.702-0.349 2.865-0.745 3.884-0.402 1.068-1.031 2.035-1.844 2.835-0.8 0.815-1.767 1.443-2.833 1.844-1.018 0.396-2.182 0.666-3.884 0.745-1.707 0.078-2.252 0.096-6.598 0.096s-4.89-0.019-6.596-0.096c-1.702-0.077-2.865-0.349-3.884-0.745-1.067-0.402-2.035-1.031-2.835-1.844-0.814-0.799-1.444-1.766-1.846-2.833-0.394-1.018-0.664-2.182-0.743-3.884-0.078-1.709-0.096-2.253-0.096-6.598 0-4.346 0.019-4.89 0.096-6.595s0.349-2.869 0.743-3.887c0.403-1.067 1.033-2.034 1.847-2.833 0.799-0.814 1.765-1.444 2.832-1.846 1.018-0.394 2.182-0.664 3.884-0.743h0.001zM22.466 2.976c-1.688-0.077-2.194-0.093-6.466-0.093s-4.778 0.016-6.466 0.093c-1.561 0.071-2.407 0.332-2.972 0.551-0.746 0.291-1.28 0.636-1.84 1.196-0.531 0.516-0.94 1.145-1.196 1.84-0.22 0.564-0.48 1.411-0.551 2.972-0.077 1.688-0.093 2.194-0.093 6.466s0.016 4.778 0.093 6.466c0.071 1.561 0.332 2.407 0.551 2.971 0.256 0.694 0.665 1.323 1.196 1.84 0.516 0.531 1.146 0.94 1.84 1.196 0.564 0.22 1.411 0.48 2.972 0.551 1.688 0.077 2.192 0.093 6.466 0.093s4.778-0.016 6.466-0.093c1.561-0.071 2.407-0.332 2.971-0.551 0.746-0.291 1.28-0.636 1.84-1.196 0.531-0.516 0.94-1.146 1.196-1.84 0.22-0.564 0.48-1.411 0.551-2.971 0.077-1.688 0.093-2.194 0.093-6.466s-0.016-4.778-0.093-6.466c-0.071-1.561-0.332-2.407-0.551-2.972-0.291-0.746-0.636-1.28-1.196-1.84-0.516-0.531-1.145-0.939-1.84-1.196-0.564-0.22-1.411-0.48-2.971-0.551zM13.956 20.933c1.141 0.475 2.412 0.539 3.596 0.181s2.206-1.115 2.893-2.143c0.687-1.028 0.995-2.262 0.873-3.492s-0.668-2.38-1.543-3.252c-0.558-0.558-1.233-0.985-1.976-1.251s-1.536-0.363-2.321-0.286c-0.785 0.077-1.544 0.328-2.221 0.734s-1.255 0.957-1.694 1.613c-0.438 0.656-0.726 1.401-0.842 2.182s-0.058 1.577 0.172 2.332c0.229 0.755 0.623 1.45 1.152 2.035s1.183 1.045 1.912 1.347zM10.185 10.185c0.764-0.764 1.67-1.369 2.668-1.783s2.068-0.626 3.147-0.626 2.15 0.213 3.147 0.626c0.998 0.413 1.904 1.019 2.668 1.783s1.369 1.67 1.783 2.668c0.413 0.998 0.626 2.068 0.626 3.147s-0.213 2.15-0.626 3.147c-0.413 0.998-1.019 1.904-1.783 2.668-1.542 1.542-3.634 2.409-5.815 2.409s-4.273-0.867-5.815-2.409c-1.542-1.542-2.409-3.634-2.409-5.815s0.866-4.273 2.409-5.815zM26.048 9.001c0.189-0.179 0.341-0.393 0.446-0.631s0.16-0.495 0.164-0.755c0.004-0.26-0.045-0.518-0.142-0.759s-0.243-0.46-0.427-0.644c-0.184-0.184-0.403-0.329-0.644-0.427s-0.499-0.146-0.759-0.142c-0.26 0.004-0.517 0.060-0.755 0.164s-0.453 0.256-0.631 0.446c-0.347 0.368-0.537 0.857-0.53 1.363s0.211 0.989 0.569 1.347c0.358 0.358 0.841 0.562 1.347 0.569s0.995-0.183 1.363-0.53z"></path>
</symbol>
<symbol id="icon-twitter" viewBox="0 0 32 32">
<path fill="none" stroke="#fcfcfb" style="stroke: var(--color50, #fcfcfb)" stroke-linejoin="round" stroke-linecap="butt" stroke-miterlimit="4" stroke-width="2.6667" d="M27.733 9.209c2.347 13.327-13.787 23.056-26.4 15.459 3.227 0.133 6.453-0.799 8.8-2.665-7.333-1.999-11-9.862-7.333-15.993 3.227 3.465 8.213 5.464 13.2 5.331-1.32-5.597 5.867-8.796 10.267-5.064 1.613 0 4.4-1.599 4.4-1.599s-1.027 2.799-2.933 4.531z"></path>
</symbol>
<symbol id="icon-facebook" viewBox="0 0 32 32">
<path fill="#fcfcfb" style="fill: var(--color50, #fcfcfb)" d="M0 16.089c0 7.955 5.777 14.569 13.333 15.911v-11.556h-4v-4.444h4v-3.556c0-4 2.577-6.221 6.223-6.221 1.155 0 2.4 0.177 3.555 0.355v4.089h-2.044c-1.956 0-2.4 0.977-2.4 2.223v3.111h4.267l-0.711 4.444h-3.556v11.556c7.556-1.341 13.333-7.955 13.333-15.911 0-8.849-7.2-16.089-16-16.089s-16 7.24-16 16.089z"></path>
</symbol>
<symbol id="suitcase" width="32" height="32" viewBox="0 0 32 32" fill="none">
<path d="M10.6667 9.33333H21.3334M10.6667 9.33333H5.33341C4.62617 9.33333 3.94789 9.61428 3.4478 10.1144C2.9477 10.6145 2.66675 11.2928 2.66675 12V25.3333C2.66675 26.0406 2.9477 26.7189 3.4478 27.219C3.94789 27.719 4.62617 28 5.33341 28H26.6667C27.374 28 28.0523 27.719 28.5524 27.219C29.0525 26.7189 29.3334 26.0406 29.3334 25.3333V12C29.3334 11.2928 29.0525 10.6145 28.5524 10.1144C28.0523 9.61428 27.374 9.33333 26.6667 9.33333H21.3334H10.6667ZM10.6667 9.33333V4.8C10.6667 4.58783 10.751 4.38434 10.9011 4.23431C11.0511 4.08429 11.2546 4 11.4667 4H20.5334C20.7456 4 20.9491 4.08429 21.0991 4.23431C21.2491 4.38434 21.3334 4.58783 21.3334 4.8V9.33333H10.6667Z" stroke="#2D2A22" stroke-width="2"/>
</symbol>
<symbol id="graph" width="32" height="32" viewBox="0 0 32 32" fill="none">
<path d="M25.3333 26.3334H4.33325V5.33337" stroke="#2D2A22" stroke-width="2" stroke-linecap="round" stroke-linejoin="round"/>
<path d="M4.33325 21.7396L14.8333 11.8959L18.7708 15.8334L24.677 9.92712" stroke="#2D2A22" stroke-width="2" stroke-linecap="round" stroke-linejoin="round"/>
</symbol>
<symbol id="home" width="32" height="32" viewBox="0 0 32 32" fill="none">
<path d="M25.3333 17.3334V25.8667C25.3333 26.0789 25.249 26.2824 25.099 26.4324C24.949 26.5824 24.7455 26.6667 24.5333 26.6667H7.46667C7.25449 26.6667 7.05101 26.5824 6.90098 26.4324C6.75095 26.2824 6.66667 26.0789 6.66667 25.8667V17.3334M4 12.6667L16 5.33337L28 12.6667H4Z" stroke="#2D2A22" stroke-width="2" stroke-linecap="round" stroke-linejoin="round"/>
</symbol>
<symbol id="star" width="32" height="32" viewBox="0 0 32 32" fill="none">
<path d="M20.6667 30H11.3333M20.6667 30V16.9326C20.6667 16.6851 20.5683 16.4477 20.3933 16.2726C20.2183 16.0976 19.9809 15.9993 19.7333 15.9993H12.2667C12.0191 15.9993 11.7817 16.0976 11.6067 16.2726C11.4317 16.4477 11.3333 16.6851 11.3333 16.9326V30M20.6667 30H29.0667C29.3142 30 29.5516 29.9017 29.7266 29.7266C29.9017 29.5516 30 29.3142 30 29.0666V25.4887C30 25.2411 29.9017 25.0037 29.7266 24.8286C29.5516 24.6536 29.3142 24.5553 29.0667 24.5553H21.6C21.3525 24.5553 21.1151 24.6536 20.94 24.8286C20.765 25.0037 20.6667 25.2411 20.6667 25.4887V30ZM11.3333 30V22.3774C11.3333 22.1298 11.235 21.8924 11.06 21.7174C10.8849 21.5423 10.6475 21.444 10.4 21.444H2.93333C2.6858 21.444 2.4484 21.5423 2.27337 21.7174C2.09833 21.8924 2 22.1298 2 22.3774V29.0666C2 29.3142 2.09833 29.5516 2.27337 29.7266C2.4484 29.9017 2.6858 30 2.93333 30H11.3333ZM14.1427 5.28557L15.5567 2.28785C15.5948 2.20216 15.657 2.12936 15.7357 2.07828C15.8144 2.02719 15.9062 2 16 2C16.0938 2 16.1856 2.02719 16.2643 2.07828C16.343 2.12936 16.4052 2.20216 16.4433 2.28785L17.8589 5.28557L21.0198 5.76937C21.4258 5.8316 21.5876 6.35429 21.2936 6.65298L19.0069 8.98643L19.5467 12.2813C19.6151 12.7044 19.192 13.028 18.828 12.8273L16 11.2717L13.172 12.8273C12.8096 13.0264 12.3849 12.7044 12.4533 12.2813L12.9931 8.98643L10.7064 6.65298C10.4109 6.35429 10.5742 5.8316 10.9787 5.76937L14.1427 5.28713V5.28557Z" stroke="#2D2A22" stroke-width="2" stroke-linecap="round" stroke-linejoin="round"/>
</symbol>
</defs>
</svg>
