<svg width="13" height="24" viewBox="0 0 13 24" fill="none" xmlns="http://www.w3.org/2000/svg">
<path d="M12.0137 0.666002C12.1772 0.844598 12.2688 1.08435 12.2688 1.334C12.2688 1.58366 12.1772 1.82341 12.0137 2.002L2.87682 12L12.0137 21.996C12.1772 22.1746 12.2688 22.4143 12.2688 22.664C12.2688 22.9136 12.1772 23.1534 12.0137 23.332C11.9342 23.4191 11.8392 23.4883 11.7342 23.5356C11.6292 23.5828 11.5164 23.6072 11.4024 23.6072C11.2885 23.6072 11.1757 23.5828 11.0707 23.5356C10.9657 23.4883 10.8707 23.4191 10.7912 23.332L1.07495 12.698C0.904299 12.5112 0.808791 12.2608 0.808791 12C0.808791 11.7392 0.904299 11.4887 1.07495 11.302L10.7912 0.668002C10.8707 0.580916 10.9657 0.511698 11.0707 0.464435C11.1757 0.417172 11.2885 0.392822 11.4024 0.392822C11.5164 0.392822 11.6292 0.417172 11.7342 0.464435C11.8392 0.511698 11.9342 0.580916 12.0137 0.668002V0.666002Z" fill="black"/>
</svg>
