<svg width="13" height="24" viewBox="0 0 13 24" fill="none" xmlns="http://www.w3.org/2000/svg">
<path d="M0.986301 0.666002C0.822759 0.844598 0.731201 1.08435 0.731201 1.334C0.731201 1.58366 0.822759 1.82341 0.986301 2.002L10.1232 12L0.986301 21.996C0.822759 22.1746 0.731201 22.4143 0.731201 22.664C0.731201 22.9136 0.822759 23.1534 0.986301 23.332C1.06579 23.4191 1.16084 23.4883 1.26582 23.5356C1.3708 23.5828 1.4836 23.6072 1.59755 23.6072C1.7115 23.6072 1.8243 23.5828 1.92928 23.5356C2.03426 23.4883 2.12931 23.4191 2.2088 23.332L11.925 12.698C12.0957 12.5112 12.1912 12.2608 12.1912 12C12.1912 11.7392 12.0957 11.4887 11.925 11.302L2.2088 0.668002C2.12931 0.580916 2.03426 0.511698 1.92928 0.464435C1.8243 0.417172 1.7115 0.392822 1.59755 0.392822C1.4836 0.392822 1.3708 0.417172 1.26582 0.464435C1.16084 0.511698 1.06579 0.580916 0.986301 0.668002V0.666002Z" fill="black"/>
</svg>
